%TF.GenerationSoftware,KiCad,Pcbnew,8.0.5*%
%TF.CreationDate,2024-09-22T14:53:49-07:00*%
%TF.ProjectId,Udemy_STM32_KiCAD_Course,5564656d-795f-4535-944d-33325f4b6943,rev?*%
%TF.SameCoordinates,Original*%
%TF.FileFunction,Copper,L2,Bot*%
%TF.FilePolarity,Positive*%
%FSLAX46Y46*%
G04 Gerber Fmt 4.6, Leading zero omitted, Abs format (unit mm)*
G04 Created by KiCad (PCBNEW 8.0.5) date 2024-09-22 14:53:49*
%MOMM*%
%LPD*%
G01*
G04 APERTURE LIST*
%TA.AperFunction,ComponentPad*%
%ADD10R,1.700000X1.700000*%
%TD*%
%TA.AperFunction,ComponentPad*%
%ADD11O,1.700000X1.700000*%
%TD*%
%TA.AperFunction,ComponentPad*%
%ADD12O,1.800000X1.150000*%
%TD*%
%TA.AperFunction,ComponentPad*%
%ADD13O,2.000000X1.450000*%
%TD*%
%TA.AperFunction,ViaPad*%
%ADD14C,0.700000*%
%TD*%
%TA.AperFunction,Conductor*%
%ADD15C,0.500000*%
%TD*%
G04 APERTURE END LIST*
D10*
%TO.P,J4,1,Pin_1*%
%TO.N,+3.3V*%
X121400000Y-123000000D03*
D11*
%TO.P,J4,2,Pin_2*%
%TO.N,/I2C2_SCL*%
X123940000Y-123000000D03*
%TO.P,J4,3,Pin_3*%
%TO.N,/I2C2_SDA*%
X126480000Y-123000000D03*
%TO.P,J4,4,Pin_4*%
%TO.N,GND*%
X129020000Y-123000000D03*
%TD*%
%TO.P,J3,4,Pin_4*%
%TO.N,GND*%
X130000000Y-93000000D03*
%TO.P,J3,3,Pin_3*%
%TO.N,/SW_CLK*%
X132540000Y-93000000D03*
%TO.P,J3,2,Pin_2*%
%TO.N,/SW_DIO*%
X135080000Y-93000000D03*
D10*
%TO.P,J3,1,Pin_1*%
%TO.N,+3.3V*%
X137620000Y-93000000D03*
%TD*%
D11*
%TO.P,J2,4,Pin_4*%
%TO.N,GND*%
X116380000Y-93000000D03*
%TO.P,J2,3,Pin_3*%
%TO.N,/USART1_RX*%
X118920000Y-93000000D03*
%TO.P,J2,2,Pin_2*%
%TO.N,/USART1_TX*%
X121460000Y-93000000D03*
D10*
%TO.P,J2,1,Pin_1*%
%TO.N,+3.3V*%
X124000000Y-93000000D03*
%TD*%
D12*
%TO.P,J1,6,Shield*%
%TO.N,unconnected-(J1-Shield-Pad6)_2*%
X145450000Y-102025000D03*
D13*
%TO.N,unconnected-(J1-Shield-Pad6)_1*%
X141650000Y-102175000D03*
%TO.N,unconnected-(J1-Shield-Pad6)*%
X141650000Y-109625000D03*
D12*
%TO.N,unconnected-(J1-Shield-Pad6)_3*%
X145450000Y-109775000D03*
%TD*%
D14*
%TO.N,GND*%
X124000000Y-97700000D03*
X114000000Y-108600000D03*
X115600000Y-103400000D03*
%TO.N,+3.3V*%
X145000000Y-115200000D03*
X143600000Y-112200000D03*
X123280000Y-119400000D03*
X124680000Y-119400000D03*
X126000000Y-116000000D03*
X127800000Y-116000000D03*
%TO.N,GND*%
X141600000Y-115800000D03*
X138400000Y-115600000D03*
X137400000Y-115600000D03*
X137600000Y-112000000D03*
X137600000Y-111000000D03*
X140400000Y-104600000D03*
X110800000Y-100000000D03*
X118534733Y-106498184D03*
X145200000Y-113400000D03*
X117600000Y-103800000D03*
X118400000Y-111000000D03*
X118600000Y-115000000D03*
X133000000Y-105400000D03*
X122863480Y-108393030D03*
X124800000Y-113400000D03*
X128000000Y-110000000D03*
X119400000Y-102600000D03*
%TD*%
D15*
%TO.N,+3.3V*%
X143600000Y-112200000D02*
X143600000Y-113800000D01*
X143600000Y-113800000D02*
X145000000Y-115200000D01*
X124680000Y-119400000D02*
X123280000Y-119400000D01*
X127800000Y-116000000D02*
X126000000Y-116000000D01*
%TD*%
%TA.AperFunction,Conductor*%
%TO.N,GND*%
G36*
X144500855Y-90500011D02*
G01*
X144662269Y-90502274D01*
X144674390Y-90503041D01*
X144978553Y-90537312D01*
X144995992Y-90539277D01*
X145009700Y-90541606D01*
X145324366Y-90613426D01*
X145337725Y-90617273D01*
X145642392Y-90723881D01*
X145655228Y-90729199D01*
X145946025Y-90869239D01*
X145958195Y-90875965D01*
X146231486Y-91047685D01*
X146242827Y-91055732D01*
X146495173Y-91256971D01*
X146505541Y-91266237D01*
X146733762Y-91494458D01*
X146743028Y-91504826D01*
X146944267Y-91757172D01*
X146952314Y-91768513D01*
X147124034Y-92041804D01*
X147130760Y-92053974D01*
X147270798Y-92344766D01*
X147276120Y-92357613D01*
X147382724Y-92662270D01*
X147386573Y-92675633D01*
X147458393Y-92990299D01*
X147460722Y-93004007D01*
X147496957Y-93325597D01*
X147497725Y-93337743D01*
X147499988Y-93499144D01*
X147500000Y-93500882D01*
X147500000Y-122499117D01*
X147499988Y-122500855D01*
X147497725Y-122662256D01*
X147496957Y-122674402D01*
X147460722Y-122995992D01*
X147458393Y-123009700D01*
X147386573Y-123324366D01*
X147382724Y-123337729D01*
X147276120Y-123642386D01*
X147270798Y-123655233D01*
X147130760Y-123946025D01*
X147124034Y-123958195D01*
X146952314Y-124231486D01*
X146944267Y-124242827D01*
X146743028Y-124495173D01*
X146733762Y-124505541D01*
X146505541Y-124733762D01*
X146495173Y-124743028D01*
X146242827Y-124944267D01*
X146231486Y-124952314D01*
X145958195Y-125124034D01*
X145946025Y-125130760D01*
X145655233Y-125270798D01*
X145642386Y-125276120D01*
X145337729Y-125382724D01*
X145324366Y-125386573D01*
X145009700Y-125458393D01*
X144995992Y-125460722D01*
X144674402Y-125496957D01*
X144662256Y-125497725D01*
X144500856Y-125499988D01*
X144499118Y-125500000D01*
X109500882Y-125500000D01*
X109499144Y-125499988D01*
X109337743Y-125497725D01*
X109325597Y-125496957D01*
X109004007Y-125460722D01*
X108990299Y-125458393D01*
X108675633Y-125386573D01*
X108662270Y-125382724D01*
X108357613Y-125276120D01*
X108344766Y-125270798D01*
X108053974Y-125130760D01*
X108041804Y-125124034D01*
X107768513Y-124952314D01*
X107757172Y-124944267D01*
X107504826Y-124743028D01*
X107494458Y-124733762D01*
X107266237Y-124505541D01*
X107256971Y-124495173D01*
X107125755Y-124330633D01*
X107055730Y-124242824D01*
X107047685Y-124231486D01*
X106996796Y-124150497D01*
X106875964Y-123958193D01*
X106869239Y-123946025D01*
X106844597Y-123894856D01*
X106729199Y-123655228D01*
X106723879Y-123642386D01*
X106711935Y-123608253D01*
X106617273Y-123337725D01*
X106613426Y-123324366D01*
X106541606Y-123009700D01*
X106539277Y-122995992D01*
X106528906Y-122903951D01*
X106503041Y-122674390D01*
X106502274Y-122662269D01*
X106500012Y-122500855D01*
X106500000Y-122499117D01*
X106500000Y-122393713D01*
X108149500Y-122393713D01*
X108149500Y-122606286D01*
X108178231Y-122787690D01*
X108182754Y-122816243D01*
X108245612Y-123009700D01*
X108248444Y-123018414D01*
X108344951Y-123207820D01*
X108469890Y-123379786D01*
X108620213Y-123530109D01*
X108792179Y-123655048D01*
X108792181Y-123655049D01*
X108792184Y-123655051D01*
X108981588Y-123751557D01*
X109183757Y-123817246D01*
X109393713Y-123850500D01*
X109393714Y-123850500D01*
X109606286Y-123850500D01*
X109606287Y-123850500D01*
X109816243Y-123817246D01*
X110018412Y-123751557D01*
X110207816Y-123655051D01*
X110272226Y-123608255D01*
X110379786Y-123530109D01*
X110379788Y-123530106D01*
X110379792Y-123530104D01*
X110530104Y-123379792D01*
X110530106Y-123379788D01*
X110530109Y-123379786D01*
X110655048Y-123207820D01*
X110655047Y-123207820D01*
X110655051Y-123207816D01*
X110751557Y-123018412D01*
X110817246Y-122816243D01*
X110850500Y-122606287D01*
X110850500Y-122393713D01*
X110817246Y-122183757D01*
X110791699Y-122105131D01*
X120249500Y-122105131D01*
X120249500Y-123894856D01*
X120249502Y-123894882D01*
X120252413Y-123919987D01*
X120252415Y-123919991D01*
X120297793Y-124022764D01*
X120297794Y-124022765D01*
X120377235Y-124102206D01*
X120480009Y-124147585D01*
X120505135Y-124150500D01*
X122294864Y-124150499D01*
X122294879Y-124150497D01*
X122294882Y-124150497D01*
X122319987Y-124147586D01*
X122319988Y-124147585D01*
X122319991Y-124147585D01*
X122422765Y-124102206D01*
X122502206Y-124022765D01*
X122547585Y-123919991D01*
X122550500Y-123894865D01*
X122550499Y-123156046D01*
X122570183Y-123089009D01*
X122622987Y-123043254D01*
X122692146Y-123033310D01*
X122755702Y-123062335D01*
X122793476Y-123121113D01*
X122797970Y-123144606D01*
X122802454Y-123192993D01*
X122804244Y-123212310D01*
X122857675Y-123400099D01*
X122862596Y-123417392D01*
X122862596Y-123417394D01*
X122957632Y-123608253D01*
X123086127Y-123778406D01*
X123086128Y-123778407D01*
X123243698Y-123922052D01*
X123424981Y-124034298D01*
X123623802Y-124111321D01*
X123833390Y-124150500D01*
X123833392Y-124150500D01*
X124046608Y-124150500D01*
X124046610Y-124150500D01*
X124256198Y-124111321D01*
X124455019Y-124034298D01*
X124636302Y-123922052D01*
X124793872Y-123778407D01*
X124922366Y-123608255D01*
X124976270Y-123500000D01*
X125017403Y-123417394D01*
X125017403Y-123417393D01*
X125017405Y-123417389D01*
X125075756Y-123212310D01*
X125086529Y-123096047D01*
X125112315Y-123031111D01*
X125154622Y-123000804D01*
X125263130Y-123000804D01*
X125299503Y-123021668D01*
X125331693Y-123083681D01*
X125333470Y-123096047D01*
X125344244Y-123212310D01*
X125397675Y-123400099D01*
X125402596Y-123417392D01*
X125402596Y-123417394D01*
X125497632Y-123608253D01*
X125626127Y-123778406D01*
X125626128Y-123778407D01*
X125783698Y-123922052D01*
X125964981Y-124034298D01*
X126163802Y-124111321D01*
X126373390Y-124150500D01*
X126373392Y-124150500D01*
X126586608Y-124150500D01*
X126586610Y-124150500D01*
X126796198Y-124111321D01*
X126995019Y-124034298D01*
X127176302Y-123922052D01*
X127333872Y-123778407D01*
X127462366Y-123608255D01*
X127529325Y-123473781D01*
X127576825Y-123422548D01*
X127644488Y-123405126D01*
X127710828Y-123427051D01*
X127752705Y-123476651D01*
X127846399Y-123677578D01*
X127981894Y-123871082D01*
X128148917Y-124038105D01*
X128342421Y-124173600D01*
X128556507Y-124273429D01*
X128556516Y-124273433D01*
X128770000Y-124330634D01*
X128770000Y-123433012D01*
X128827007Y-123465925D01*
X128954174Y-123500000D01*
X129085826Y-123500000D01*
X129212993Y-123465925D01*
X129270000Y-123433012D01*
X129270000Y-124330633D01*
X129483483Y-124273433D01*
X129483492Y-124273429D01*
X129697578Y-124173600D01*
X129891082Y-124038105D01*
X130058105Y-123871082D01*
X130193600Y-123677578D01*
X130293429Y-123463492D01*
X130293432Y-123463486D01*
X130350636Y-123250000D01*
X129453012Y-123250000D01*
X129485925Y-123192993D01*
X129520000Y-123065826D01*
X129520000Y-122934174D01*
X129485925Y-122807007D01*
X129453012Y-122750000D01*
X130350636Y-122750000D01*
X130350635Y-122749999D01*
X130293432Y-122536513D01*
X130293429Y-122536507D01*
X130226843Y-122393713D01*
X143149500Y-122393713D01*
X143149500Y-122606286D01*
X143178231Y-122787690D01*
X143182754Y-122816243D01*
X143245612Y-123009700D01*
X143248444Y-123018414D01*
X143344951Y-123207820D01*
X143469890Y-123379786D01*
X143620213Y-123530109D01*
X143792179Y-123655048D01*
X143792181Y-123655049D01*
X143792184Y-123655051D01*
X143981588Y-123751557D01*
X144183757Y-123817246D01*
X144393713Y-123850500D01*
X144393714Y-123850500D01*
X144606286Y-123850500D01*
X144606287Y-123850500D01*
X144816243Y-123817246D01*
X145018412Y-123751557D01*
X145207816Y-123655051D01*
X145272226Y-123608255D01*
X145379786Y-123530109D01*
X145379788Y-123530106D01*
X145379792Y-123530104D01*
X145530104Y-123379792D01*
X145530106Y-123379788D01*
X145530109Y-123379786D01*
X145655048Y-123207820D01*
X145655047Y-123207820D01*
X145655051Y-123207816D01*
X145751557Y-123018412D01*
X145817246Y-122816243D01*
X145850500Y-122606287D01*
X145850500Y-122393713D01*
X145817246Y-122183757D01*
X145751557Y-121981588D01*
X145655051Y-121792184D01*
X145655049Y-121792181D01*
X145655048Y-121792179D01*
X145530109Y-121620213D01*
X145379786Y-121469890D01*
X145207820Y-121344951D01*
X145018414Y-121248444D01*
X145018413Y-121248443D01*
X145018412Y-121248443D01*
X144816243Y-121182754D01*
X144816241Y-121182753D01*
X144816240Y-121182753D01*
X144654957Y-121157208D01*
X144606287Y-121149500D01*
X144393713Y-121149500D01*
X144345042Y-121157208D01*
X144183760Y-121182753D01*
X143981585Y-121248444D01*
X143792179Y-121344951D01*
X143620213Y-121469890D01*
X143469890Y-121620213D01*
X143344951Y-121792179D01*
X143248444Y-121981585D01*
X143182753Y-122183760D01*
X143149500Y-122393713D01*
X130226843Y-122393713D01*
X130193600Y-122322422D01*
X130193599Y-122322420D01*
X130058113Y-122128926D01*
X130058108Y-122128920D01*
X129891082Y-121961894D01*
X129697578Y-121826399D01*
X129483492Y-121726570D01*
X129483486Y-121726567D01*
X129270000Y-121669364D01*
X129270000Y-122566988D01*
X129212993Y-122534075D01*
X129085826Y-122500000D01*
X128954174Y-122500000D01*
X128827007Y-122534075D01*
X128770000Y-122566988D01*
X128770000Y-121669364D01*
X128769999Y-121669364D01*
X128556513Y-121726567D01*
X128556507Y-121726570D01*
X128342422Y-121826399D01*
X128342420Y-121826400D01*
X128148926Y-121961886D01*
X128148920Y-121961891D01*
X127981891Y-122128920D01*
X127981886Y-122128926D01*
X127846400Y-122322420D01*
X127846399Y-122322422D01*
X127752705Y-122523348D01*
X127706532Y-122575787D01*
X127639339Y-122594939D01*
X127572457Y-122574723D01*
X127529324Y-122526216D01*
X127462366Y-122391745D01*
X127333872Y-122221593D01*
X127176302Y-122077948D01*
X126995019Y-121965702D01*
X126995017Y-121965701D01*
X126895608Y-121927190D01*
X126796198Y-121888679D01*
X126586610Y-121849500D01*
X126373390Y-121849500D01*
X126163802Y-121888679D01*
X126163799Y-121888679D01*
X126163799Y-121888680D01*
X125964982Y-121965701D01*
X125964980Y-121965702D01*
X125783699Y-122077947D01*
X125626127Y-122221593D01*
X125497632Y-122391746D01*
X125402596Y-122582605D01*
X125402596Y-122582607D01*
X125344244Y-122787689D01*
X125333471Y-122903951D01*
X125307685Y-122968888D01*
X125263130Y-123000804D01*
X125154622Y-123000804D01*
X125156869Y-122999194D01*
X125120497Y-122978331D01*
X125088307Y-122916318D01*
X125086529Y-122903951D01*
X125083175Y-122867759D01*
X125075756Y-122787690D01*
X125017405Y-122582611D01*
X125017403Y-122582606D01*
X125017403Y-122582605D01*
X124922367Y-122391746D01*
X124793872Y-122221593D01*
X124752368Y-122183757D01*
X124636302Y-122077948D01*
X124455019Y-121965702D01*
X124455017Y-121965701D01*
X124355608Y-121927190D01*
X124256198Y-121888679D01*
X124046610Y-121849500D01*
X123833390Y-121849500D01*
X123623802Y-121888679D01*
X123623799Y-121888679D01*
X123623799Y-121888680D01*
X123424982Y-121965701D01*
X123424980Y-121965702D01*
X123243699Y-122077947D01*
X123086127Y-122221593D01*
X122957632Y-122391746D01*
X122862596Y-122582605D01*
X122862596Y-122582607D01*
X122804244Y-122787689D01*
X122797970Y-122855394D01*
X122772183Y-122920331D01*
X122715383Y-122961018D01*
X122645602Y-122964538D01*
X122584995Y-122929772D01*
X122552806Y-122867759D01*
X122550499Y-122843952D01*
X122550499Y-122105143D01*
X122550499Y-122105136D01*
X122550497Y-122105117D01*
X122547586Y-122080012D01*
X122547585Y-122080010D01*
X122547585Y-122080009D01*
X122502206Y-121977235D01*
X122422765Y-121897794D01*
X122402124Y-121888680D01*
X122319992Y-121852415D01*
X122294865Y-121849500D01*
X120505143Y-121849500D01*
X120505117Y-121849502D01*
X120480012Y-121852413D01*
X120480008Y-121852415D01*
X120377235Y-121897793D01*
X120297794Y-121977234D01*
X120252415Y-122080006D01*
X120252415Y-122080008D01*
X120249500Y-122105131D01*
X110791699Y-122105131D01*
X110751557Y-121981588D01*
X110655051Y-121792184D01*
X110655049Y-121792181D01*
X110655048Y-121792179D01*
X110530109Y-121620213D01*
X110379786Y-121469890D01*
X110207820Y-121344951D01*
X110018414Y-121248444D01*
X110018413Y-121248443D01*
X110018412Y-121248443D01*
X109816243Y-121182754D01*
X109816241Y-121182753D01*
X109816240Y-121182753D01*
X109654957Y-121157208D01*
X109606287Y-121149500D01*
X109393713Y-121149500D01*
X109345042Y-121157208D01*
X109183760Y-121182753D01*
X108981585Y-121248444D01*
X108792179Y-121344951D01*
X108620213Y-121469890D01*
X108469890Y-121620213D01*
X108344951Y-121792179D01*
X108248444Y-121981585D01*
X108182753Y-122183760D01*
X108149500Y-122393713D01*
X106500000Y-122393713D01*
X106500000Y-119399999D01*
X122624722Y-119399999D01*
X122624722Y-119400000D01*
X122643762Y-119556818D01*
X122699780Y-119704523D01*
X122789517Y-119834530D01*
X122907760Y-119939283D01*
X122907762Y-119939284D01*
X123047634Y-120012696D01*
X123201014Y-120050500D01*
X123201015Y-120050500D01*
X123358985Y-120050500D01*
X123512365Y-120012696D01*
X123603805Y-119964703D01*
X123661431Y-119950500D01*
X124298569Y-119950500D01*
X124356194Y-119964703D01*
X124447635Y-120012696D01*
X124524325Y-120031598D01*
X124601014Y-120050500D01*
X124601015Y-120050500D01*
X124758985Y-120050500D01*
X124912365Y-120012696D01*
X125052240Y-119939283D01*
X125170483Y-119834530D01*
X125260220Y-119704523D01*
X125316237Y-119556818D01*
X125335278Y-119400000D01*
X125316237Y-119243182D01*
X125260220Y-119095477D01*
X125170483Y-118965470D01*
X125052240Y-118860717D01*
X125052238Y-118860716D01*
X125052237Y-118860715D01*
X124912365Y-118787303D01*
X124758986Y-118749500D01*
X124758985Y-118749500D01*
X124601015Y-118749500D01*
X124601014Y-118749500D01*
X124447636Y-118787303D01*
X124401763Y-118811379D01*
X124356194Y-118835296D01*
X124298569Y-118849500D01*
X123661431Y-118849500D01*
X123603805Y-118835296D01*
X123512365Y-118787304D01*
X123512364Y-118787303D01*
X123512363Y-118787303D01*
X123358986Y-118749500D01*
X123358985Y-118749500D01*
X123201015Y-118749500D01*
X123201014Y-118749500D01*
X123047634Y-118787303D01*
X122907762Y-118860715D01*
X122789516Y-118965471D01*
X122699781Y-119095475D01*
X122699780Y-119095476D01*
X122643762Y-119243181D01*
X122624722Y-119399999D01*
X106500000Y-119399999D01*
X106500000Y-115999999D01*
X125344722Y-115999999D01*
X125344722Y-116000000D01*
X125363762Y-116156818D01*
X125419780Y-116304523D01*
X125509517Y-116434530D01*
X125627760Y-116539283D01*
X125627762Y-116539284D01*
X125767634Y-116612696D01*
X125921014Y-116650500D01*
X125921015Y-116650500D01*
X126078985Y-116650500D01*
X126232365Y-116612696D01*
X126323805Y-116564703D01*
X126381431Y-116550500D01*
X127418569Y-116550500D01*
X127476194Y-116564703D01*
X127567635Y-116612696D01*
X127644325Y-116631598D01*
X127721014Y-116650500D01*
X127721015Y-116650500D01*
X127878985Y-116650500D01*
X128032365Y-116612696D01*
X128172240Y-116539283D01*
X128290483Y-116434530D01*
X128380220Y-116304523D01*
X128436237Y-116156818D01*
X128455278Y-116000000D01*
X128436237Y-115843182D01*
X128380220Y-115695477D01*
X128290483Y-115565470D01*
X128172240Y-115460717D01*
X128172238Y-115460716D01*
X128172237Y-115460715D01*
X128032365Y-115387303D01*
X127878986Y-115349500D01*
X127878985Y-115349500D01*
X127721015Y-115349500D01*
X127721014Y-115349500D01*
X127567636Y-115387303D01*
X127521763Y-115411379D01*
X127476194Y-115435296D01*
X127418569Y-115449500D01*
X126381431Y-115449500D01*
X126323805Y-115435296D01*
X126232365Y-115387304D01*
X126232364Y-115387303D01*
X126232363Y-115387303D01*
X126078986Y-115349500D01*
X126078985Y-115349500D01*
X125921015Y-115349500D01*
X125921014Y-115349500D01*
X125767634Y-115387303D01*
X125627762Y-115460715D01*
X125509516Y-115565471D01*
X125419781Y-115695475D01*
X125419780Y-115695476D01*
X125363762Y-115843181D01*
X125344722Y-115999999D01*
X106500000Y-115999999D01*
X106500000Y-112199999D01*
X142944722Y-112199999D01*
X142944722Y-112200000D01*
X142963762Y-112356818D01*
X143019780Y-112504523D01*
X143027548Y-112515777D01*
X143049433Y-112582130D01*
X143049500Y-112586219D01*
X143049500Y-113727526D01*
X143049500Y-113872474D01*
X143087016Y-114012485D01*
X143159489Y-114138013D01*
X143159491Y-114138016D01*
X144336063Y-115314588D01*
X144364324Y-115358298D01*
X144403166Y-115460715D01*
X144419780Y-115504523D01*
X144509517Y-115634530D01*
X144627760Y-115739283D01*
X144627762Y-115739284D01*
X144767634Y-115812696D01*
X144921014Y-115850500D01*
X144921015Y-115850500D01*
X145078985Y-115850500D01*
X145232365Y-115812696D01*
X145372240Y-115739283D01*
X145490483Y-115634530D01*
X145580220Y-115504523D01*
X145636237Y-115356818D01*
X145655278Y-115200000D01*
X145636237Y-115043182D01*
X145580220Y-114895477D01*
X145490483Y-114765470D01*
X145372240Y-114660717D01*
X145372238Y-114660716D01*
X145372237Y-114660715D01*
X145232367Y-114587304D01*
X145177626Y-114573812D01*
X145119621Y-114541096D01*
X144186819Y-113608294D01*
X144153334Y-113546971D01*
X144150500Y-113520613D01*
X144150500Y-112586219D01*
X144170185Y-112519180D01*
X144172434Y-112515802D01*
X144180220Y-112504523D01*
X144236237Y-112356818D01*
X144255278Y-112200000D01*
X144236237Y-112043182D01*
X144180220Y-111895477D01*
X144090483Y-111765470D01*
X143972240Y-111660717D01*
X143972238Y-111660716D01*
X143972237Y-111660715D01*
X143832365Y-111587303D01*
X143678986Y-111549500D01*
X143678985Y-111549500D01*
X143521015Y-111549500D01*
X143521014Y-111549500D01*
X143367634Y-111587303D01*
X143227762Y-111660715D01*
X143109516Y-111765471D01*
X143019781Y-111895475D01*
X143019780Y-111895476D01*
X142963762Y-112043181D01*
X142944722Y-112199999D01*
X106500000Y-112199999D01*
X106500000Y-109523992D01*
X140349500Y-109523992D01*
X140349500Y-109726007D01*
X140388907Y-109924119D01*
X140388909Y-109924127D01*
X140466212Y-110110752D01*
X140466217Y-110110762D01*
X140578441Y-110278718D01*
X140721281Y-110421558D01*
X140889237Y-110533782D01*
X140889241Y-110533784D01*
X140889244Y-110533786D01*
X141075873Y-110611091D01*
X141273992Y-110650499D01*
X141273996Y-110650500D01*
X141273997Y-110650500D01*
X142026004Y-110650500D01*
X142026005Y-110650499D01*
X142224127Y-110611091D01*
X142410756Y-110533786D01*
X142578718Y-110421558D01*
X142721558Y-110278718D01*
X142833786Y-110110756D01*
X142911091Y-109924127D01*
X142950500Y-109726003D01*
X142950500Y-109688766D01*
X144249500Y-109688766D01*
X144249500Y-109861233D01*
X144283143Y-110030366D01*
X144283146Y-110030378D01*
X144349138Y-110189698D01*
X144349145Y-110189711D01*
X144444954Y-110333098D01*
X144444957Y-110333102D01*
X144566897Y-110455042D01*
X144566901Y-110455045D01*
X144710288Y-110550854D01*
X144710301Y-110550861D01*
X144855708Y-110611090D01*
X144869626Y-110616855D01*
X145038766Y-110650499D01*
X145038769Y-110650500D01*
X145038771Y-110650500D01*
X145861231Y-110650500D01*
X145861232Y-110650499D01*
X146030374Y-110616855D01*
X146189705Y-110550858D01*
X146333099Y-110455045D01*
X146455045Y-110333099D01*
X146550858Y-110189705D01*
X146616855Y-110030374D01*
X146650500Y-109861229D01*
X146650500Y-109688771D01*
X146650500Y-109688768D01*
X146650499Y-109688766D01*
X146616856Y-109519633D01*
X146616855Y-109519626D01*
X146616853Y-109519621D01*
X146550861Y-109360301D01*
X146550854Y-109360288D01*
X146455045Y-109216901D01*
X146455042Y-109216897D01*
X146333102Y-109094957D01*
X146333098Y-109094954D01*
X146189711Y-108999145D01*
X146189698Y-108999138D01*
X146030378Y-108933146D01*
X146030366Y-108933143D01*
X145861232Y-108899500D01*
X145861229Y-108899500D01*
X145038771Y-108899500D01*
X145038768Y-108899500D01*
X144869633Y-108933143D01*
X144869621Y-108933146D01*
X144710301Y-108999138D01*
X144710288Y-108999145D01*
X144566901Y-109094954D01*
X144566897Y-109094957D01*
X144444957Y-109216897D01*
X144444954Y-109216901D01*
X144349145Y-109360288D01*
X144349138Y-109360301D01*
X144283146Y-109519621D01*
X144283143Y-109519633D01*
X144249500Y-109688766D01*
X142950500Y-109688766D01*
X142950500Y-109523997D01*
X142911091Y-109325873D01*
X142869932Y-109226507D01*
X142862463Y-109157037D01*
X142893738Y-109094558D01*
X142944060Y-109064700D01*
X142943207Y-109062452D01*
X142950222Y-109059790D01*
X142950225Y-109059790D01*
X143100852Y-108980734D01*
X143228183Y-108867929D01*
X143324818Y-108727930D01*
X143385140Y-108568872D01*
X143405645Y-108400000D01*
X143385140Y-108231128D01*
X143324818Y-108072070D01*
X143228183Y-107932071D01*
X143100852Y-107819266D01*
X143100849Y-107819263D01*
X142950226Y-107740210D01*
X142785056Y-107699500D01*
X142614944Y-107699500D01*
X142449773Y-107740210D01*
X142299150Y-107819263D01*
X142171816Y-107932072D01*
X142075182Y-108072068D01*
X142014860Y-108231125D01*
X142014859Y-108231130D01*
X141994355Y-108399999D01*
X142001708Y-108460553D01*
X141990248Y-108529476D01*
X141943344Y-108581263D01*
X141878612Y-108599500D01*
X141273992Y-108599500D01*
X141075880Y-108638907D01*
X141075872Y-108638909D01*
X140889247Y-108716212D01*
X140889237Y-108716217D01*
X140721281Y-108828441D01*
X140578441Y-108971281D01*
X140466217Y-109139237D01*
X140466212Y-109139247D01*
X140388909Y-109325872D01*
X140388907Y-109325880D01*
X140349500Y-109523992D01*
X106500000Y-109523992D01*
X106500000Y-104818995D01*
X107799499Y-104818995D01*
X107826418Y-104954322D01*
X107826421Y-104954332D01*
X107879221Y-105081804D01*
X107879228Y-105081817D01*
X107955885Y-105196541D01*
X107955888Y-105196545D01*
X108053454Y-105294111D01*
X108053458Y-105294114D01*
X108168182Y-105370771D01*
X108168195Y-105370778D01*
X108295667Y-105423578D01*
X108295672Y-105423580D01*
X108295676Y-105423580D01*
X108295677Y-105423581D01*
X108431004Y-105450500D01*
X108431007Y-105450500D01*
X108568995Y-105450500D01*
X108660041Y-105432389D01*
X108704328Y-105423580D01*
X108831811Y-105370775D01*
X108946542Y-105294114D01*
X109044114Y-105196542D01*
X109120775Y-105081811D01*
X109173580Y-104954328D01*
X109200500Y-104818993D01*
X109200500Y-104681007D01*
X109200500Y-104681004D01*
X109173581Y-104545677D01*
X109173580Y-104545676D01*
X109173580Y-104545672D01*
X109173578Y-104545667D01*
X109120778Y-104418195D01*
X109120771Y-104418182D01*
X109044114Y-104303458D01*
X109044111Y-104303454D01*
X108946545Y-104205888D01*
X108946541Y-104205885D01*
X108831817Y-104129228D01*
X108831804Y-104129221D01*
X108704332Y-104076421D01*
X108704322Y-104076418D01*
X108568995Y-104049500D01*
X108568993Y-104049500D01*
X108431007Y-104049500D01*
X108431005Y-104049500D01*
X108295677Y-104076418D01*
X108295667Y-104076421D01*
X108168195Y-104129221D01*
X108168182Y-104129228D01*
X108053458Y-104205885D01*
X108053454Y-104205888D01*
X107955888Y-104303454D01*
X107955885Y-104303458D01*
X107879228Y-104418182D01*
X107879221Y-104418195D01*
X107826421Y-104545667D01*
X107826418Y-104545677D01*
X107799500Y-104681004D01*
X107799500Y-104681007D01*
X107799500Y-104818993D01*
X107799500Y-104818995D01*
X107799499Y-104818995D01*
X106500000Y-104818995D01*
X106500000Y-101818995D01*
X107799499Y-101818995D01*
X107826418Y-101954322D01*
X107826421Y-101954332D01*
X107879221Y-102081804D01*
X107879228Y-102081817D01*
X107955885Y-102196541D01*
X107955888Y-102196545D01*
X108053454Y-102294111D01*
X108053458Y-102294114D01*
X108168182Y-102370771D01*
X108168195Y-102370778D01*
X108295667Y-102423578D01*
X108295672Y-102423580D01*
X108295676Y-102423580D01*
X108295677Y-102423581D01*
X108431004Y-102450500D01*
X108431007Y-102450500D01*
X108568995Y-102450500D01*
X108660041Y-102432389D01*
X108704328Y-102423580D01*
X108831811Y-102370775D01*
X108946542Y-102294114D01*
X109044114Y-102196542D01*
X109120775Y-102081811D01*
X109124014Y-102073992D01*
X140349500Y-102073992D01*
X140349500Y-102276007D01*
X140388907Y-102474119D01*
X140388909Y-102474127D01*
X140466212Y-102660752D01*
X140466217Y-102660762D01*
X140578441Y-102828718D01*
X140721281Y-102971558D01*
X140889237Y-103083782D01*
X140889241Y-103083784D01*
X140889244Y-103083786D01*
X141075873Y-103161091D01*
X141273484Y-103200398D01*
X141273992Y-103200499D01*
X141273996Y-103200500D01*
X141878612Y-103200500D01*
X141945651Y-103220185D01*
X141991406Y-103272989D01*
X142001708Y-103339447D01*
X141994355Y-103400000D01*
X142014859Y-103568869D01*
X142014860Y-103568874D01*
X142075182Y-103727931D01*
X142137475Y-103818177D01*
X142171817Y-103867929D01*
X142277505Y-103961560D01*
X142299150Y-103980736D01*
X142430169Y-104049500D01*
X142449775Y-104059790D01*
X142614944Y-104100500D01*
X142785056Y-104100500D01*
X142950225Y-104059790D01*
X143029692Y-104018081D01*
X143100849Y-103980736D01*
X143100850Y-103980734D01*
X143100852Y-103980734D01*
X143228183Y-103867929D01*
X143324818Y-103727930D01*
X143385140Y-103568872D01*
X143405645Y-103400000D01*
X143385140Y-103231128D01*
X143373524Y-103200500D01*
X143358578Y-103161090D01*
X143324818Y-103072070D01*
X143228183Y-102932071D01*
X143100852Y-102819266D01*
X143100849Y-102819263D01*
X142950225Y-102740209D01*
X142943210Y-102737549D01*
X142944131Y-102735119D01*
X142894438Y-102706186D01*
X142862649Y-102643967D01*
X142869544Y-102574439D01*
X142869932Y-102573492D01*
X142911091Y-102474127D01*
X142950500Y-102276003D01*
X142950500Y-102073997D01*
X142923601Y-101938766D01*
X144249500Y-101938766D01*
X144249500Y-102111233D01*
X144283143Y-102280366D01*
X144283146Y-102280378D01*
X144349138Y-102439698D01*
X144349145Y-102439711D01*
X144444954Y-102583098D01*
X144444957Y-102583102D01*
X144566897Y-102705042D01*
X144566901Y-102705045D01*
X144710288Y-102800854D01*
X144710301Y-102800861D01*
X144869621Y-102866853D01*
X144869626Y-102866855D01*
X145038766Y-102900499D01*
X145038769Y-102900500D01*
X145038771Y-102900500D01*
X145861231Y-102900500D01*
X145861232Y-102900499D01*
X146030374Y-102866855D01*
X146189705Y-102800858D01*
X146333099Y-102705045D01*
X146455045Y-102583099D01*
X146550858Y-102439705D01*
X146616855Y-102280374D01*
X146650500Y-102111229D01*
X146650500Y-101938771D01*
X146650500Y-101938768D01*
X146650499Y-101938766D01*
X146637989Y-101875873D01*
X146616855Y-101769626D01*
X146580147Y-101681004D01*
X146550861Y-101610301D01*
X146550854Y-101610288D01*
X146455045Y-101466901D01*
X146455042Y-101466897D01*
X146333102Y-101344957D01*
X146333098Y-101344954D01*
X146189711Y-101249145D01*
X146189698Y-101249138D01*
X146030378Y-101183146D01*
X146030366Y-101183143D01*
X145861232Y-101149500D01*
X145861229Y-101149500D01*
X145038771Y-101149500D01*
X145038768Y-101149500D01*
X144869633Y-101183143D01*
X144869621Y-101183146D01*
X144710301Y-101249138D01*
X144710288Y-101249145D01*
X144566901Y-101344954D01*
X144566897Y-101344957D01*
X144444957Y-101466897D01*
X144444954Y-101466901D01*
X144349145Y-101610288D01*
X144349138Y-101610301D01*
X144283146Y-101769621D01*
X144283143Y-101769633D01*
X144249500Y-101938766D01*
X142923601Y-101938766D01*
X142911091Y-101875873D01*
X142833786Y-101689244D01*
X142833784Y-101689241D01*
X142833782Y-101689237D01*
X142721558Y-101521281D01*
X142578718Y-101378441D01*
X142410762Y-101266217D01*
X142410752Y-101266212D01*
X142224127Y-101188909D01*
X142224119Y-101188907D01*
X142026007Y-101149500D01*
X142026003Y-101149500D01*
X141273997Y-101149500D01*
X141273992Y-101149500D01*
X141075880Y-101188907D01*
X141075872Y-101188909D01*
X140889247Y-101266212D01*
X140889237Y-101266217D01*
X140721281Y-101378441D01*
X140578441Y-101521281D01*
X140466217Y-101689237D01*
X140466212Y-101689247D01*
X140388909Y-101875872D01*
X140388907Y-101875880D01*
X140349500Y-102073992D01*
X109124014Y-102073992D01*
X109173580Y-101954328D01*
X109182389Y-101910041D01*
X109200500Y-101818995D01*
X109200500Y-101681004D01*
X109173581Y-101545677D01*
X109173580Y-101545676D01*
X109173580Y-101545672D01*
X109173578Y-101545667D01*
X109120778Y-101418195D01*
X109120771Y-101418182D01*
X109044114Y-101303458D01*
X109044111Y-101303454D01*
X108946545Y-101205888D01*
X108946541Y-101205885D01*
X108831817Y-101129228D01*
X108831804Y-101129221D01*
X108704332Y-101076421D01*
X108704322Y-101076418D01*
X108568995Y-101049500D01*
X108568993Y-101049500D01*
X108431007Y-101049500D01*
X108431005Y-101049500D01*
X108295677Y-101076418D01*
X108295667Y-101076421D01*
X108168195Y-101129221D01*
X108168182Y-101129228D01*
X108053458Y-101205885D01*
X108053454Y-101205888D01*
X107955888Y-101303454D01*
X107955885Y-101303458D01*
X107879228Y-101418182D01*
X107879221Y-101418195D01*
X107826421Y-101545667D01*
X107826418Y-101545677D01*
X107799500Y-101681004D01*
X107799500Y-101681007D01*
X107799500Y-101818993D01*
X107799500Y-101818995D01*
X107799499Y-101818995D01*
X106500000Y-101818995D01*
X106500000Y-93500882D01*
X106500012Y-93499144D01*
X106500327Y-93476651D01*
X106501489Y-93393713D01*
X108149500Y-93393713D01*
X108149500Y-93606287D01*
X108182754Y-93816243D01*
X108208305Y-93894882D01*
X108248444Y-94018414D01*
X108344951Y-94207820D01*
X108469890Y-94379786D01*
X108620213Y-94530109D01*
X108792179Y-94655048D01*
X108792181Y-94655049D01*
X108792184Y-94655051D01*
X108981588Y-94751557D01*
X109183757Y-94817246D01*
X109393713Y-94850500D01*
X109393714Y-94850500D01*
X109606286Y-94850500D01*
X109606287Y-94850500D01*
X109816243Y-94817246D01*
X110018412Y-94751557D01*
X110207816Y-94655051D01*
X110229789Y-94639086D01*
X110379786Y-94530109D01*
X110379788Y-94530106D01*
X110379792Y-94530104D01*
X110530104Y-94379792D01*
X110530106Y-94379788D01*
X110530109Y-94379786D01*
X110655048Y-94207820D01*
X110655047Y-94207820D01*
X110655051Y-94207816D01*
X110751557Y-94018412D01*
X110817246Y-93816243D01*
X110850500Y-93606287D01*
X110850500Y-93393713D01*
X110817246Y-93183757D01*
X110751557Y-92981588D01*
X110655051Y-92792184D01*
X110655049Y-92792181D01*
X110655048Y-92792179D01*
X110624403Y-92749999D01*
X115049364Y-92749999D01*
X115049364Y-92750000D01*
X115946988Y-92750000D01*
X115914075Y-92807007D01*
X115880000Y-92934174D01*
X115880000Y-93065826D01*
X115914075Y-93192993D01*
X115946988Y-93250000D01*
X115049364Y-93250000D01*
X115106567Y-93463486D01*
X115106570Y-93463492D01*
X115206399Y-93677578D01*
X115341894Y-93871082D01*
X115508917Y-94038105D01*
X115702421Y-94173600D01*
X115916507Y-94273429D01*
X115916516Y-94273433D01*
X116130000Y-94330634D01*
X116130000Y-93433012D01*
X116187007Y-93465925D01*
X116314174Y-93500000D01*
X116445826Y-93500000D01*
X116572993Y-93465925D01*
X116630000Y-93433012D01*
X116630000Y-94330633D01*
X116843483Y-94273433D01*
X116843492Y-94273429D01*
X117057578Y-94173600D01*
X117251082Y-94038105D01*
X117418105Y-93871082D01*
X117553600Y-93677578D01*
X117647294Y-93476651D01*
X117693466Y-93424212D01*
X117760660Y-93405060D01*
X117827541Y-93425276D01*
X117870676Y-93473785D01*
X117937632Y-93608253D01*
X118066127Y-93778406D01*
X118066128Y-93778407D01*
X118223698Y-93922052D01*
X118404981Y-94034298D01*
X118603802Y-94111321D01*
X118813390Y-94150500D01*
X118813392Y-94150500D01*
X119026608Y-94150500D01*
X119026610Y-94150500D01*
X119236198Y-94111321D01*
X119435019Y-94034298D01*
X119616302Y-93922052D01*
X119773872Y-93778407D01*
X119902366Y-93608255D01*
X119956270Y-93500000D01*
X119997403Y-93417394D01*
X119997403Y-93417393D01*
X119997405Y-93417389D01*
X120055756Y-93212310D01*
X120066529Y-93096047D01*
X120092315Y-93031111D01*
X120134622Y-93000804D01*
X120243130Y-93000804D01*
X120279503Y-93021668D01*
X120311693Y-93083681D01*
X120313470Y-93096047D01*
X120324244Y-93212310D01*
X120377675Y-93400099D01*
X120382596Y-93417392D01*
X120382596Y-93417394D01*
X120477632Y-93608253D01*
X120606127Y-93778406D01*
X120606128Y-93778407D01*
X120763698Y-93922052D01*
X120944981Y-94034298D01*
X121143802Y-94111321D01*
X121353390Y-94150500D01*
X121353392Y-94150500D01*
X121566608Y-94150500D01*
X121566610Y-94150500D01*
X121776198Y-94111321D01*
X121975019Y-94034298D01*
X122156302Y-93922052D01*
X122313872Y-93778407D01*
X122442366Y-93608255D01*
X122496270Y-93500000D01*
X122537403Y-93417394D01*
X122537403Y-93417393D01*
X122537405Y-93417389D01*
X122595756Y-93212310D01*
X122602029Y-93144605D01*
X122627814Y-93079669D01*
X122684614Y-93038981D01*
X122754395Y-93035461D01*
X122815002Y-93070225D01*
X122847193Y-93132238D01*
X122849500Y-93156047D01*
X122849500Y-93894856D01*
X122849502Y-93894882D01*
X122852413Y-93919987D01*
X122852415Y-93919991D01*
X122897793Y-94022764D01*
X122897794Y-94022765D01*
X122977235Y-94102206D01*
X123080009Y-94147585D01*
X123105135Y-94150500D01*
X124894864Y-94150499D01*
X124894879Y-94150497D01*
X124894882Y-94150497D01*
X124919987Y-94147586D01*
X124919988Y-94147585D01*
X124919991Y-94147585D01*
X125022765Y-94102206D01*
X125102206Y-94022765D01*
X125147585Y-93919991D01*
X125150500Y-93894865D01*
X125150499Y-92749999D01*
X128669364Y-92749999D01*
X128669364Y-92750000D01*
X129566988Y-92750000D01*
X129534075Y-92807007D01*
X129500000Y-92934174D01*
X129500000Y-93065826D01*
X129534075Y-93192993D01*
X129566988Y-93250000D01*
X128669364Y-93250000D01*
X128726567Y-93463486D01*
X128726570Y-93463492D01*
X128826399Y-93677578D01*
X128961894Y-93871082D01*
X129128917Y-94038105D01*
X129322421Y-94173600D01*
X129536507Y-94273429D01*
X129536516Y-94273433D01*
X129750000Y-94330634D01*
X129750000Y-93433012D01*
X129807007Y-93465925D01*
X129934174Y-93500000D01*
X130065826Y-93500000D01*
X130192993Y-93465925D01*
X130250000Y-93433012D01*
X130250000Y-94330633D01*
X130463483Y-94273433D01*
X130463492Y-94273429D01*
X130677578Y-94173600D01*
X130871082Y-94038105D01*
X131038105Y-93871082D01*
X131173600Y-93677578D01*
X131267294Y-93476651D01*
X131313466Y-93424212D01*
X131380660Y-93405060D01*
X131447541Y-93425276D01*
X131490676Y-93473785D01*
X131557632Y-93608253D01*
X131686127Y-93778406D01*
X131686128Y-93778407D01*
X131843698Y-93922052D01*
X132024981Y-94034298D01*
X132223802Y-94111321D01*
X132433390Y-94150500D01*
X132433392Y-94150500D01*
X132646608Y-94150500D01*
X132646610Y-94150500D01*
X132856198Y-94111321D01*
X133055019Y-94034298D01*
X133236302Y-93922052D01*
X133393872Y-93778407D01*
X133522366Y-93608255D01*
X133576270Y-93500000D01*
X133617403Y-93417394D01*
X133617403Y-93417393D01*
X133617405Y-93417389D01*
X133675756Y-93212310D01*
X133686529Y-93096047D01*
X133712315Y-93031111D01*
X133754622Y-93000804D01*
X133863130Y-93000804D01*
X133899503Y-93021668D01*
X133931693Y-93083681D01*
X133933470Y-93096047D01*
X133944244Y-93212310D01*
X133997675Y-93400099D01*
X134002596Y-93417392D01*
X134002596Y-93417394D01*
X134097632Y-93608253D01*
X134226127Y-93778406D01*
X134226128Y-93778407D01*
X134383698Y-93922052D01*
X134564981Y-94034298D01*
X134763802Y-94111321D01*
X134973390Y-94150500D01*
X134973392Y-94150500D01*
X135186608Y-94150500D01*
X135186610Y-94150500D01*
X135396198Y-94111321D01*
X135595019Y-94034298D01*
X135776302Y-93922052D01*
X135933872Y-93778407D01*
X136062366Y-93608255D01*
X136116270Y-93500000D01*
X136157403Y-93417394D01*
X136157403Y-93417393D01*
X136157405Y-93417389D01*
X136215756Y-93212310D01*
X136222029Y-93144605D01*
X136247814Y-93079669D01*
X136304614Y-93038981D01*
X136374395Y-93035461D01*
X136435002Y-93070225D01*
X136467193Y-93132238D01*
X136469500Y-93156047D01*
X136469500Y-93894856D01*
X136469502Y-93894882D01*
X136472413Y-93919987D01*
X136472415Y-93919991D01*
X136517793Y-94022764D01*
X136517794Y-94022765D01*
X136597235Y-94102206D01*
X136700009Y-94147585D01*
X136725135Y-94150500D01*
X138514864Y-94150499D01*
X138514879Y-94150497D01*
X138514882Y-94150497D01*
X138539987Y-94147586D01*
X138539988Y-94147585D01*
X138539991Y-94147585D01*
X138642765Y-94102206D01*
X138722206Y-94022765D01*
X138767585Y-93919991D01*
X138770500Y-93894865D01*
X138770500Y-93393713D01*
X143149500Y-93393713D01*
X143149500Y-93606287D01*
X143182754Y-93816243D01*
X143208305Y-93894882D01*
X143248444Y-94018414D01*
X143344951Y-94207820D01*
X143469890Y-94379786D01*
X143620213Y-94530109D01*
X143792179Y-94655048D01*
X143792181Y-94655049D01*
X143792184Y-94655051D01*
X143981588Y-94751557D01*
X144183757Y-94817246D01*
X144393713Y-94850500D01*
X144393714Y-94850500D01*
X144606286Y-94850500D01*
X144606287Y-94850500D01*
X144816243Y-94817246D01*
X145018412Y-94751557D01*
X145207816Y-94655051D01*
X145229789Y-94639086D01*
X145379786Y-94530109D01*
X145379788Y-94530106D01*
X145379792Y-94530104D01*
X145530104Y-94379792D01*
X145530106Y-94379788D01*
X145530109Y-94379786D01*
X145655048Y-94207820D01*
X145655047Y-94207820D01*
X145655051Y-94207816D01*
X145751557Y-94018412D01*
X145817246Y-93816243D01*
X145850500Y-93606287D01*
X145850500Y-93393713D01*
X145817246Y-93183757D01*
X145751557Y-92981588D01*
X145655051Y-92792184D01*
X145655049Y-92792181D01*
X145655048Y-92792179D01*
X145530109Y-92620213D01*
X145379786Y-92469890D01*
X145207820Y-92344951D01*
X145018414Y-92248444D01*
X145018413Y-92248443D01*
X145018412Y-92248443D01*
X144816243Y-92182754D01*
X144816241Y-92182753D01*
X144816240Y-92182753D01*
X144654957Y-92157208D01*
X144606287Y-92149500D01*
X144393713Y-92149500D01*
X144345042Y-92157208D01*
X144183760Y-92182753D01*
X143981585Y-92248444D01*
X143792179Y-92344951D01*
X143620213Y-92469890D01*
X143469890Y-92620213D01*
X143344951Y-92792179D01*
X143248444Y-92981585D01*
X143182753Y-93183760D01*
X143158367Y-93337729D01*
X143149500Y-93393713D01*
X138770500Y-93393713D01*
X138770499Y-92105136D01*
X138770497Y-92105117D01*
X138767586Y-92080012D01*
X138767585Y-92080010D01*
X138767585Y-92080009D01*
X138722206Y-91977235D01*
X138642765Y-91897794D01*
X138622124Y-91888680D01*
X138539992Y-91852415D01*
X138514865Y-91849500D01*
X136725143Y-91849500D01*
X136725117Y-91849502D01*
X136700012Y-91852413D01*
X136700008Y-91852415D01*
X136597235Y-91897793D01*
X136517794Y-91977234D01*
X136472415Y-92080006D01*
X136472415Y-92080008D01*
X136469500Y-92105131D01*
X136469500Y-92843951D01*
X136449815Y-92910990D01*
X136397011Y-92956745D01*
X136327853Y-92966689D01*
X136264297Y-92937664D01*
X136226523Y-92878886D01*
X136222029Y-92855391D01*
X136215756Y-92787689D01*
X136183872Y-92675633D01*
X136157405Y-92582611D01*
X136157403Y-92582606D01*
X136157403Y-92582605D01*
X136062367Y-92391746D01*
X135933872Y-92221593D01*
X135854790Y-92149500D01*
X135776302Y-92077948D01*
X135595019Y-91965702D01*
X135595017Y-91965701D01*
X135495608Y-91927190D01*
X135396198Y-91888679D01*
X135186610Y-91849500D01*
X134973390Y-91849500D01*
X134763802Y-91888679D01*
X134763799Y-91888679D01*
X134763799Y-91888680D01*
X134564982Y-91965701D01*
X134564980Y-91965702D01*
X134383699Y-92077947D01*
X134226127Y-92221593D01*
X134097632Y-92391746D01*
X134002596Y-92582605D01*
X134002596Y-92582607D01*
X133944244Y-92787689D01*
X133933471Y-92903951D01*
X133907685Y-92968888D01*
X133863130Y-93000804D01*
X133754622Y-93000804D01*
X133756869Y-92999194D01*
X133720497Y-92978331D01*
X133688307Y-92916318D01*
X133686529Y-92903951D01*
X133680969Y-92843951D01*
X133675756Y-92787690D01*
X133617405Y-92582611D01*
X133617403Y-92582606D01*
X133617403Y-92582605D01*
X133522367Y-92391746D01*
X133393872Y-92221593D01*
X133314790Y-92149500D01*
X133236302Y-92077948D01*
X133055019Y-91965702D01*
X133055017Y-91965701D01*
X132955608Y-91927190D01*
X132856198Y-91888679D01*
X132646610Y-91849500D01*
X132433390Y-91849500D01*
X132223802Y-91888679D01*
X132223799Y-91888679D01*
X132223799Y-91888680D01*
X132024982Y-91965701D01*
X132024980Y-91965702D01*
X131843699Y-92077947D01*
X131686127Y-92221593D01*
X131557634Y-92391744D01*
X131490676Y-92526215D01*
X131443173Y-92577452D01*
X131375510Y-92594873D01*
X131309170Y-92572947D01*
X131267294Y-92523348D01*
X131173600Y-92322422D01*
X131173599Y-92322420D01*
X131038113Y-92128926D01*
X131038108Y-92128920D01*
X130871082Y-91961894D01*
X130677578Y-91826399D01*
X130463492Y-91726570D01*
X130463486Y-91726567D01*
X130250000Y-91669364D01*
X130250000Y-92566988D01*
X130192993Y-92534075D01*
X130065826Y-92500000D01*
X129934174Y-92500000D01*
X129807007Y-92534075D01*
X129750000Y-92566988D01*
X129750000Y-91669364D01*
X129749999Y-91669364D01*
X129536513Y-91726567D01*
X129536507Y-91726570D01*
X129322422Y-91826399D01*
X129322420Y-91826400D01*
X129128926Y-91961886D01*
X129128920Y-91961891D01*
X128961891Y-92128920D01*
X128961886Y-92128926D01*
X128826400Y-92322420D01*
X128826399Y-92322422D01*
X128726570Y-92536507D01*
X128726567Y-92536513D01*
X128669364Y-92749999D01*
X125150499Y-92749999D01*
X125150499Y-92105136D01*
X125150497Y-92105117D01*
X125147586Y-92080012D01*
X125147585Y-92080010D01*
X125147585Y-92080009D01*
X125102206Y-91977235D01*
X125022765Y-91897794D01*
X125002124Y-91888680D01*
X124919992Y-91852415D01*
X124894865Y-91849500D01*
X123105143Y-91849500D01*
X123105117Y-91849502D01*
X123080012Y-91852413D01*
X123080008Y-91852415D01*
X122977235Y-91897793D01*
X122897794Y-91977234D01*
X122852415Y-92080006D01*
X122852415Y-92080008D01*
X122849500Y-92105131D01*
X122849500Y-92843951D01*
X122829815Y-92910990D01*
X122777011Y-92956745D01*
X122707853Y-92966689D01*
X122644297Y-92937664D01*
X122606523Y-92878886D01*
X122602029Y-92855391D01*
X122595756Y-92787689D01*
X122563872Y-92675633D01*
X122537405Y-92582611D01*
X122537403Y-92582606D01*
X122537403Y-92582605D01*
X122442367Y-92391746D01*
X122313872Y-92221593D01*
X122234790Y-92149500D01*
X122156302Y-92077948D01*
X121975019Y-91965702D01*
X121975017Y-91965701D01*
X121875608Y-91927190D01*
X121776198Y-91888679D01*
X121566610Y-91849500D01*
X121353390Y-91849500D01*
X121143802Y-91888679D01*
X121143799Y-91888679D01*
X121143799Y-91888680D01*
X120944982Y-91965701D01*
X120944980Y-91965702D01*
X120763699Y-92077947D01*
X120606127Y-92221593D01*
X120477632Y-92391746D01*
X120382596Y-92582605D01*
X120382596Y-92582607D01*
X120324244Y-92787689D01*
X120313471Y-92903951D01*
X120287685Y-92968888D01*
X120243130Y-93000804D01*
X120134622Y-93000804D01*
X120136869Y-92999194D01*
X120100497Y-92978331D01*
X120068307Y-92916318D01*
X120066529Y-92903951D01*
X120060969Y-92843951D01*
X120055756Y-92787690D01*
X119997405Y-92582611D01*
X119997403Y-92582606D01*
X119997403Y-92582605D01*
X119902367Y-92391746D01*
X119773872Y-92221593D01*
X119694790Y-92149500D01*
X119616302Y-92077948D01*
X119435019Y-91965702D01*
X119435017Y-91965701D01*
X119335608Y-91927190D01*
X119236198Y-91888679D01*
X119026610Y-91849500D01*
X118813390Y-91849500D01*
X118603802Y-91888679D01*
X118603799Y-91888679D01*
X118603799Y-91888680D01*
X118404982Y-91965701D01*
X118404980Y-91965702D01*
X118223699Y-92077947D01*
X118066127Y-92221593D01*
X117937634Y-92391744D01*
X117870676Y-92526215D01*
X117823173Y-92577452D01*
X117755510Y-92594873D01*
X117689170Y-92572947D01*
X117647294Y-92523348D01*
X117553600Y-92322422D01*
X117553599Y-92322420D01*
X117418113Y-92128926D01*
X117418108Y-92128920D01*
X117251082Y-91961894D01*
X117057578Y-91826399D01*
X116843492Y-91726570D01*
X116843486Y-91726567D01*
X116630000Y-91669364D01*
X116630000Y-92566988D01*
X116572993Y-92534075D01*
X116445826Y-92500000D01*
X116314174Y-92500000D01*
X116187007Y-92534075D01*
X116130000Y-92566988D01*
X116130000Y-91669364D01*
X116129999Y-91669364D01*
X115916513Y-91726567D01*
X115916507Y-91726570D01*
X115702422Y-91826399D01*
X115702420Y-91826400D01*
X115508926Y-91961886D01*
X115508920Y-91961891D01*
X115341891Y-92128920D01*
X115341886Y-92128926D01*
X115206400Y-92322420D01*
X115206399Y-92322422D01*
X115106570Y-92536507D01*
X115106567Y-92536513D01*
X115049364Y-92749999D01*
X110624403Y-92749999D01*
X110530109Y-92620213D01*
X110379786Y-92469890D01*
X110207820Y-92344951D01*
X110018414Y-92248444D01*
X110018413Y-92248443D01*
X110018412Y-92248443D01*
X109816243Y-92182754D01*
X109816241Y-92182753D01*
X109816240Y-92182753D01*
X109654957Y-92157208D01*
X109606287Y-92149500D01*
X109393713Y-92149500D01*
X109345042Y-92157208D01*
X109183760Y-92182753D01*
X108981585Y-92248444D01*
X108792179Y-92344951D01*
X108620213Y-92469890D01*
X108469890Y-92620213D01*
X108344951Y-92792179D01*
X108248444Y-92981585D01*
X108182753Y-93183760D01*
X108158367Y-93337729D01*
X108149500Y-93393713D01*
X106501489Y-93393713D01*
X106502274Y-93337729D01*
X106503041Y-93325610D01*
X106539277Y-93004005D01*
X106541606Y-92990299D01*
X106587850Y-92787689D01*
X106613427Y-92675627D01*
X106617272Y-92662279D01*
X106723883Y-92357601D01*
X106729196Y-92344777D01*
X106869243Y-92053965D01*
X106875959Y-92041813D01*
X107047693Y-91768501D01*
X107055723Y-91757183D01*
X107256979Y-91504816D01*
X107266228Y-91494467D01*
X107494467Y-91266228D01*
X107504816Y-91256979D01*
X107757183Y-91055723D01*
X107768501Y-91047693D01*
X108041813Y-90875959D01*
X108053965Y-90869243D01*
X108344777Y-90729196D01*
X108357601Y-90723883D01*
X108662279Y-90617272D01*
X108675627Y-90613427D01*
X108893293Y-90563746D01*
X108990299Y-90541606D01*
X109004005Y-90539277D01*
X109325610Y-90503041D01*
X109337729Y-90502274D01*
X109499144Y-90500011D01*
X109500882Y-90500000D01*
X144499118Y-90500000D01*
X144500855Y-90500011D01*
G37*
%TD.AperFunction*%
%TD*%
M02*
