M48
; DRILL file {KiCad 8.0.5} date 2024-09-22T14:53:46-0700
; FORMAT={-:-/ absolute / metric / decimal}
; #@! TF.CreationDate,2024-09-22T14:53:46-07:00
; #@! TF.GenerationSoftware,Kicad,Pcbnew,8.0.5
; #@! TF.FileFunction,MixedPlating,1,2
FMAT,2
METRIC
; #@! TA.AperFunction,Plated,PTH,ViaDrill
T1C0.300
; #@! TA.AperFunction,Plated,PTH,ComponentDrill
T2C0.550
; #@! TA.AperFunction,Plated,PTH,ComponentDrill
T3C0.850
; #@! TA.AperFunction,Plated,PTH,ComponentDrill
T4C1.000
; #@! TA.AperFunction,NonPlated,NPTH,ComponentDrill
T5C0.800
; #@! TA.AperFunction,NonPlated,NPTH,ComponentDrill
T6C0.900
; #@! TA.AperFunction,NonPlated,NPTH,ComponentDrill
T7C2.200
%
G90
G05
T1
X110.8Y-100.0
X114.0Y-108.6
X115.6Y-103.4
X117.6Y-103.8
X118.4Y-111.0
X118.535Y-106.498
X118.6Y-115.0
X119.4Y-102.6
X122.863Y-108.393
X123.28Y-119.4
X124.0Y-97.7
X124.68Y-119.4
X124.8Y-113.4
X126.0Y-116.0
X127.8Y-116.0
X128.0Y-110.0
X133.0Y-105.4
X137.4Y-115.6
X137.6Y-111.0
X137.6Y-112.0
X138.4Y-115.6
X140.4Y-104.6
X141.6Y-115.8
X143.6Y-112.2
X145.0Y-115.2
X145.2Y-113.4
T4
X116.38Y-93.0
X118.92Y-93.0
X121.4Y-123.0
X121.46Y-93.0
X123.94Y-123.0
X124.0Y-93.0
X126.48Y-123.0
X129.02Y-123.0
X130.0Y-93.0
X132.54Y-93.0
X135.08Y-93.0
X137.62Y-93.0
T5
X142.7Y-103.4
X142.7Y-108.4
T6
X108.5Y-101.75
X108.5Y-104.75
T7
X109.5Y-93.5
X109.5Y-122.5
X144.5Y-93.5
X144.5Y-122.5
T2
G00X145.125Y-102.025
M15
G01X145.775Y-102.025
M16
G05
G00X145.125Y-109.775
M15
G01X145.775Y-109.775
M16
G05
T3
G00X141.375Y-102.175
M15
G01X141.925Y-102.175
M16
G05
G00X141.375Y-109.625
M15
G01X141.925Y-109.625
M16
G05
M30
