%TF.GenerationSoftware,KiCad,Pcbnew,8.0.5*%
%TF.CreationDate,2024-09-22T14:53:49-07:00*%
%TF.ProjectId,Udemy_STM32_KiCAD_Course,5564656d-795f-4535-944d-33325f4b6943,rev?*%
%TF.SameCoordinates,Original*%
%TF.FileFunction,Legend,Top*%
%TF.FilePolarity,Positive*%
%FSLAX46Y46*%
G04 Gerber Fmt 4.6, Leading zero omitted, Abs format (unit mm)*
G04 Created by KiCad (PCBNEW 8.0.5) date 2024-09-22 14:53:49*
%MOMM*%
%LPD*%
G01*
G04 APERTURE LIST*
%ADD10C,0.100000*%
%ADD11C,0.150000*%
%ADD12C,0.120000*%
G04 APERTURE END LIST*
D10*
X117103884Y-123072419D02*
X117103884Y-122072419D01*
X117532455Y-122167657D02*
X117580074Y-122120038D01*
X117580074Y-122120038D02*
X117675312Y-122072419D01*
X117675312Y-122072419D02*
X117913407Y-122072419D01*
X117913407Y-122072419D02*
X118008645Y-122120038D01*
X118008645Y-122120038D02*
X118056264Y-122167657D01*
X118056264Y-122167657D02*
X118103883Y-122262895D01*
X118103883Y-122262895D02*
X118103883Y-122358133D01*
X118103883Y-122358133D02*
X118056264Y-122500990D01*
X118056264Y-122500990D02*
X117484836Y-123072419D01*
X117484836Y-123072419D02*
X118103883Y-123072419D01*
X119103883Y-122977180D02*
X119056264Y-123024800D01*
X119056264Y-123024800D02*
X118913407Y-123072419D01*
X118913407Y-123072419D02*
X118818169Y-123072419D01*
X118818169Y-123072419D02*
X118675312Y-123024800D01*
X118675312Y-123024800D02*
X118580074Y-122929561D01*
X118580074Y-122929561D02*
X118532455Y-122834323D01*
X118532455Y-122834323D02*
X118484836Y-122643847D01*
X118484836Y-122643847D02*
X118484836Y-122500990D01*
X118484836Y-122500990D02*
X118532455Y-122310514D01*
X118532455Y-122310514D02*
X118580074Y-122215276D01*
X118580074Y-122215276D02*
X118675312Y-122120038D01*
X118675312Y-122120038D02*
X118818169Y-122072419D01*
X118818169Y-122072419D02*
X118913407Y-122072419D01*
X118913407Y-122072419D02*
X119056264Y-122120038D01*
X119056264Y-122120038D02*
X119103883Y-122167657D01*
X144494360Y-116272419D02*
X144684836Y-116272419D01*
X144684836Y-116272419D02*
X144780074Y-116320038D01*
X144780074Y-116320038D02*
X144875312Y-116415276D01*
X144875312Y-116415276D02*
X144922931Y-116605752D01*
X144922931Y-116605752D02*
X144922931Y-116939085D01*
X144922931Y-116939085D02*
X144875312Y-117129561D01*
X144875312Y-117129561D02*
X144780074Y-117224800D01*
X144780074Y-117224800D02*
X144684836Y-117272419D01*
X144684836Y-117272419D02*
X144494360Y-117272419D01*
X144494360Y-117272419D02*
X144399122Y-117224800D01*
X144399122Y-117224800D02*
X144303884Y-117129561D01*
X144303884Y-117129561D02*
X144256265Y-116939085D01*
X144256265Y-116939085D02*
X144256265Y-116605752D01*
X144256265Y-116605752D02*
X144303884Y-116415276D01*
X144303884Y-116415276D02*
X144399122Y-116320038D01*
X144399122Y-116320038D02*
X144494360Y-116272419D01*
X145351503Y-117272419D02*
X145351503Y-116272419D01*
X145351503Y-116272419D02*
X145922931Y-117272419D01*
X145922931Y-117272419D02*
X145922931Y-116272419D01*
X107837217Y-108548609D02*
X107980074Y-108596228D01*
X107980074Y-108596228D02*
X108027693Y-108643847D01*
X108027693Y-108643847D02*
X108075312Y-108739085D01*
X108075312Y-108739085D02*
X108075312Y-108881942D01*
X108075312Y-108881942D02*
X108027693Y-108977180D01*
X108027693Y-108977180D02*
X107980074Y-109024800D01*
X107980074Y-109024800D02*
X107884836Y-109072419D01*
X107884836Y-109072419D02*
X107503884Y-109072419D01*
X107503884Y-109072419D02*
X107503884Y-108072419D01*
X107503884Y-108072419D02*
X107837217Y-108072419D01*
X107837217Y-108072419D02*
X107932455Y-108120038D01*
X107932455Y-108120038D02*
X107980074Y-108167657D01*
X107980074Y-108167657D02*
X108027693Y-108262895D01*
X108027693Y-108262895D02*
X108027693Y-108358133D01*
X108027693Y-108358133D02*
X107980074Y-108453371D01*
X107980074Y-108453371D02*
X107932455Y-108500990D01*
X107932455Y-108500990D02*
X107837217Y-108548609D01*
X107837217Y-108548609D02*
X107503884Y-108548609D01*
X108694360Y-108072419D02*
X108884836Y-108072419D01*
X108884836Y-108072419D02*
X108980074Y-108120038D01*
X108980074Y-108120038D02*
X109075312Y-108215276D01*
X109075312Y-108215276D02*
X109122931Y-108405752D01*
X109122931Y-108405752D02*
X109122931Y-108739085D01*
X109122931Y-108739085D02*
X109075312Y-108929561D01*
X109075312Y-108929561D02*
X108980074Y-109024800D01*
X108980074Y-109024800D02*
X108884836Y-109072419D01*
X108884836Y-109072419D02*
X108694360Y-109072419D01*
X108694360Y-109072419D02*
X108599122Y-109024800D01*
X108599122Y-109024800D02*
X108503884Y-108929561D01*
X108503884Y-108929561D02*
X108456265Y-108739085D01*
X108456265Y-108739085D02*
X108456265Y-108405752D01*
X108456265Y-108405752D02*
X108503884Y-108215276D01*
X108503884Y-108215276D02*
X108599122Y-108120038D01*
X108599122Y-108120038D02*
X108694360Y-108072419D01*
X109741979Y-108072419D02*
X109932455Y-108072419D01*
X109932455Y-108072419D02*
X110027693Y-108120038D01*
X110027693Y-108120038D02*
X110122931Y-108215276D01*
X110122931Y-108215276D02*
X110170550Y-108405752D01*
X110170550Y-108405752D02*
X110170550Y-108739085D01*
X110170550Y-108739085D02*
X110122931Y-108929561D01*
X110122931Y-108929561D02*
X110027693Y-109024800D01*
X110027693Y-109024800D02*
X109932455Y-109072419D01*
X109932455Y-109072419D02*
X109741979Y-109072419D01*
X109741979Y-109072419D02*
X109646741Y-109024800D01*
X109646741Y-109024800D02*
X109551503Y-108929561D01*
X109551503Y-108929561D02*
X109503884Y-108739085D01*
X109503884Y-108739085D02*
X109503884Y-108405752D01*
X109503884Y-108405752D02*
X109551503Y-108215276D01*
X109551503Y-108215276D02*
X109646741Y-108120038D01*
X109646741Y-108120038D02*
X109741979Y-108072419D01*
X110456265Y-108072419D02*
X111027693Y-108072419D01*
X110741979Y-109072419D02*
X110741979Y-108072419D01*
X118103884Y-95072419D02*
X118103884Y-95881942D01*
X118103884Y-95881942D02*
X118151503Y-95977180D01*
X118151503Y-95977180D02*
X118199122Y-96024800D01*
X118199122Y-96024800D02*
X118294360Y-96072419D01*
X118294360Y-96072419D02*
X118484836Y-96072419D01*
X118484836Y-96072419D02*
X118580074Y-96024800D01*
X118580074Y-96024800D02*
X118627693Y-95977180D01*
X118627693Y-95977180D02*
X118675312Y-95881942D01*
X118675312Y-95881942D02*
X118675312Y-95072419D01*
X119103884Y-95786704D02*
X119580074Y-95786704D01*
X119008646Y-96072419D02*
X119341979Y-95072419D01*
X119341979Y-95072419D02*
X119675312Y-96072419D01*
X120580074Y-96072419D02*
X120246741Y-95596228D01*
X120008646Y-96072419D02*
X120008646Y-95072419D01*
X120008646Y-95072419D02*
X120389598Y-95072419D01*
X120389598Y-95072419D02*
X120484836Y-95120038D01*
X120484836Y-95120038D02*
X120532455Y-95167657D01*
X120532455Y-95167657D02*
X120580074Y-95262895D01*
X120580074Y-95262895D02*
X120580074Y-95405752D01*
X120580074Y-95405752D02*
X120532455Y-95500990D01*
X120532455Y-95500990D02*
X120484836Y-95548609D01*
X120484836Y-95548609D02*
X120389598Y-95596228D01*
X120389598Y-95596228D02*
X120008646Y-95596228D01*
X120865789Y-95072419D02*
X121437217Y-95072419D01*
X121151503Y-96072419D02*
X121151503Y-95072419D01*
X132456265Y-96024800D02*
X132599122Y-96072419D01*
X132599122Y-96072419D02*
X132837217Y-96072419D01*
X132837217Y-96072419D02*
X132932455Y-96024800D01*
X132932455Y-96024800D02*
X132980074Y-95977180D01*
X132980074Y-95977180D02*
X133027693Y-95881942D01*
X133027693Y-95881942D02*
X133027693Y-95786704D01*
X133027693Y-95786704D02*
X132980074Y-95691466D01*
X132980074Y-95691466D02*
X132932455Y-95643847D01*
X132932455Y-95643847D02*
X132837217Y-95596228D01*
X132837217Y-95596228D02*
X132646741Y-95548609D01*
X132646741Y-95548609D02*
X132551503Y-95500990D01*
X132551503Y-95500990D02*
X132503884Y-95453371D01*
X132503884Y-95453371D02*
X132456265Y-95358133D01*
X132456265Y-95358133D02*
X132456265Y-95262895D01*
X132456265Y-95262895D02*
X132503884Y-95167657D01*
X132503884Y-95167657D02*
X132551503Y-95120038D01*
X132551503Y-95120038D02*
X132646741Y-95072419D01*
X132646741Y-95072419D02*
X132884836Y-95072419D01*
X132884836Y-95072419D02*
X133027693Y-95120038D01*
X133361027Y-95072419D02*
X133599122Y-96072419D01*
X133599122Y-96072419D02*
X133789598Y-95358133D01*
X133789598Y-95358133D02*
X133980074Y-96072419D01*
X133980074Y-96072419D02*
X134218170Y-95072419D01*
X134599122Y-96072419D02*
X134599122Y-95072419D01*
X134599122Y-95072419D02*
X134837217Y-95072419D01*
X134837217Y-95072419D02*
X134980074Y-95120038D01*
X134980074Y-95120038D02*
X135075312Y-95215276D01*
X135075312Y-95215276D02*
X135122931Y-95310514D01*
X135122931Y-95310514D02*
X135170550Y-95500990D01*
X135170550Y-95500990D02*
X135170550Y-95643847D01*
X135170550Y-95643847D02*
X135122931Y-95834323D01*
X135122931Y-95834323D02*
X135075312Y-95929561D01*
X135075312Y-95929561D02*
X134980074Y-96024800D01*
X134980074Y-96024800D02*
X134837217Y-96072419D01*
X134837217Y-96072419D02*
X134599122Y-96072419D01*
D11*
X107466667Y-98407200D02*
X107609524Y-98454819D01*
X107609524Y-98454819D02*
X107847619Y-98454819D01*
X107847619Y-98454819D02*
X107942857Y-98407200D01*
X107942857Y-98407200D02*
X107990476Y-98359580D01*
X107990476Y-98359580D02*
X108038095Y-98264342D01*
X108038095Y-98264342D02*
X108038095Y-98169104D01*
X108038095Y-98169104D02*
X107990476Y-98073866D01*
X107990476Y-98073866D02*
X107942857Y-98026247D01*
X107942857Y-98026247D02*
X107847619Y-97978628D01*
X107847619Y-97978628D02*
X107657143Y-97931009D01*
X107657143Y-97931009D02*
X107561905Y-97883390D01*
X107561905Y-97883390D02*
X107514286Y-97835771D01*
X107514286Y-97835771D02*
X107466667Y-97740533D01*
X107466667Y-97740533D02*
X107466667Y-97645295D01*
X107466667Y-97645295D02*
X107514286Y-97550057D01*
X107514286Y-97550057D02*
X107561905Y-97502438D01*
X107561905Y-97502438D02*
X107657143Y-97454819D01*
X107657143Y-97454819D02*
X107895238Y-97454819D01*
X107895238Y-97454819D02*
X108038095Y-97502438D01*
X108371429Y-97454819D02*
X108609524Y-98454819D01*
X108609524Y-98454819D02*
X108800000Y-97740533D01*
X108800000Y-97740533D02*
X108990476Y-98454819D01*
X108990476Y-98454819D02*
X109228572Y-97454819D01*
X110133333Y-98454819D02*
X109561905Y-98454819D01*
X109847619Y-98454819D02*
X109847619Y-97454819D01*
X109847619Y-97454819D02*
X109752381Y-97597676D01*
X109752381Y-97597676D02*
X109657143Y-97692914D01*
X109657143Y-97692914D02*
X109561905Y-97740533D01*
X112623809Y-109378628D02*
X112623809Y-109854819D01*
X112290476Y-108854819D02*
X112623809Y-109378628D01*
X112623809Y-109378628D02*
X112957142Y-108854819D01*
X113814285Y-109854819D02*
X113242857Y-109854819D01*
X113528571Y-109854819D02*
X113528571Y-108854819D01*
X113528571Y-108854819D02*
X113433333Y-108997676D01*
X113433333Y-108997676D02*
X113338095Y-109092914D01*
X113338095Y-109092914D02*
X113242857Y-109140533D01*
X134938095Y-121804819D02*
X134938095Y-122614342D01*
X134938095Y-122614342D02*
X134985714Y-122709580D01*
X134985714Y-122709580D02*
X135033333Y-122757200D01*
X135033333Y-122757200D02*
X135128571Y-122804819D01*
X135128571Y-122804819D02*
X135319047Y-122804819D01*
X135319047Y-122804819D02*
X135414285Y-122757200D01*
X135414285Y-122757200D02*
X135461904Y-122709580D01*
X135461904Y-122709580D02*
X135509523Y-122614342D01*
X135509523Y-122614342D02*
X135509523Y-121804819D01*
X135938095Y-121900057D02*
X135985714Y-121852438D01*
X135985714Y-121852438D02*
X136080952Y-121804819D01*
X136080952Y-121804819D02*
X136319047Y-121804819D01*
X136319047Y-121804819D02*
X136414285Y-121852438D01*
X136414285Y-121852438D02*
X136461904Y-121900057D01*
X136461904Y-121900057D02*
X136509523Y-121995295D01*
X136509523Y-121995295D02*
X136509523Y-122090533D01*
X136509523Y-122090533D02*
X136461904Y-122233390D01*
X136461904Y-122233390D02*
X135890476Y-122804819D01*
X135890476Y-122804819D02*
X136509523Y-122804819D01*
X124988095Y-100942319D02*
X124988095Y-101751842D01*
X124988095Y-101751842D02*
X125035714Y-101847080D01*
X125035714Y-101847080D02*
X125083333Y-101894700D01*
X125083333Y-101894700D02*
X125178571Y-101942319D01*
X125178571Y-101942319D02*
X125369047Y-101942319D01*
X125369047Y-101942319D02*
X125464285Y-101894700D01*
X125464285Y-101894700D02*
X125511904Y-101847080D01*
X125511904Y-101847080D02*
X125559523Y-101751842D01*
X125559523Y-101751842D02*
X125559523Y-100942319D01*
X126559523Y-101942319D02*
X125988095Y-101942319D01*
X126273809Y-101942319D02*
X126273809Y-100942319D01*
X126273809Y-100942319D02*
X126178571Y-101085176D01*
X126178571Y-101085176D02*
X126083333Y-101180414D01*
X126083333Y-101180414D02*
X125988095Y-101228033D01*
X128843333Y-118454819D02*
X128510000Y-117978628D01*
X128271905Y-118454819D02*
X128271905Y-117454819D01*
X128271905Y-117454819D02*
X128652857Y-117454819D01*
X128652857Y-117454819D02*
X128748095Y-117502438D01*
X128748095Y-117502438D02*
X128795714Y-117550057D01*
X128795714Y-117550057D02*
X128843333Y-117645295D01*
X128843333Y-117645295D02*
X128843333Y-117788152D01*
X128843333Y-117788152D02*
X128795714Y-117883390D01*
X128795714Y-117883390D02*
X128748095Y-117931009D01*
X128748095Y-117931009D02*
X128652857Y-117978628D01*
X128652857Y-117978628D02*
X128271905Y-117978628D01*
X129748095Y-117454819D02*
X129271905Y-117454819D01*
X129271905Y-117454819D02*
X129224286Y-117931009D01*
X129224286Y-117931009D02*
X129271905Y-117883390D01*
X129271905Y-117883390D02*
X129367143Y-117835771D01*
X129367143Y-117835771D02*
X129605238Y-117835771D01*
X129605238Y-117835771D02*
X129700476Y-117883390D01*
X129700476Y-117883390D02*
X129748095Y-117931009D01*
X129748095Y-117931009D02*
X129795714Y-118026247D01*
X129795714Y-118026247D02*
X129795714Y-118264342D01*
X129795714Y-118264342D02*
X129748095Y-118359580D01*
X129748095Y-118359580D02*
X129700476Y-118407200D01*
X129700476Y-118407200D02*
X129605238Y-118454819D01*
X129605238Y-118454819D02*
X129367143Y-118454819D01*
X129367143Y-118454819D02*
X129271905Y-118407200D01*
X129271905Y-118407200D02*
X129224286Y-118359580D01*
X122323333Y-118454819D02*
X121990000Y-117978628D01*
X121751905Y-118454819D02*
X121751905Y-117454819D01*
X121751905Y-117454819D02*
X122132857Y-117454819D01*
X122132857Y-117454819D02*
X122228095Y-117502438D01*
X122228095Y-117502438D02*
X122275714Y-117550057D01*
X122275714Y-117550057D02*
X122323333Y-117645295D01*
X122323333Y-117645295D02*
X122323333Y-117788152D01*
X122323333Y-117788152D02*
X122275714Y-117883390D01*
X122275714Y-117883390D02*
X122228095Y-117931009D01*
X122228095Y-117931009D02*
X122132857Y-117978628D01*
X122132857Y-117978628D02*
X121751905Y-117978628D01*
X123180476Y-117788152D02*
X123180476Y-118454819D01*
X122942381Y-117407200D02*
X122704286Y-118121485D01*
X122704286Y-118121485D02*
X123323333Y-118121485D01*
X135833333Y-103854819D02*
X135500000Y-103378628D01*
X135261905Y-103854819D02*
X135261905Y-102854819D01*
X135261905Y-102854819D02*
X135642857Y-102854819D01*
X135642857Y-102854819D02*
X135738095Y-102902438D01*
X135738095Y-102902438D02*
X135785714Y-102950057D01*
X135785714Y-102950057D02*
X135833333Y-103045295D01*
X135833333Y-103045295D02*
X135833333Y-103188152D01*
X135833333Y-103188152D02*
X135785714Y-103283390D01*
X135785714Y-103283390D02*
X135738095Y-103331009D01*
X135738095Y-103331009D02*
X135642857Y-103378628D01*
X135642857Y-103378628D02*
X135261905Y-103378628D01*
X136166667Y-102854819D02*
X136785714Y-102854819D01*
X136785714Y-102854819D02*
X136452381Y-103235771D01*
X136452381Y-103235771D02*
X136595238Y-103235771D01*
X136595238Y-103235771D02*
X136690476Y-103283390D01*
X136690476Y-103283390D02*
X136738095Y-103331009D01*
X136738095Y-103331009D02*
X136785714Y-103426247D01*
X136785714Y-103426247D02*
X136785714Y-103664342D01*
X136785714Y-103664342D02*
X136738095Y-103759580D01*
X136738095Y-103759580D02*
X136690476Y-103807200D01*
X136690476Y-103807200D02*
X136595238Y-103854819D01*
X136595238Y-103854819D02*
X136309524Y-103854819D01*
X136309524Y-103854819D02*
X136214286Y-103807200D01*
X136214286Y-103807200D02*
X136166667Y-103759580D01*
X114254819Y-99076666D02*
X113778628Y-99409999D01*
X114254819Y-99648094D02*
X113254819Y-99648094D01*
X113254819Y-99648094D02*
X113254819Y-99267142D01*
X113254819Y-99267142D02*
X113302438Y-99171904D01*
X113302438Y-99171904D02*
X113350057Y-99124285D01*
X113350057Y-99124285D02*
X113445295Y-99076666D01*
X113445295Y-99076666D02*
X113588152Y-99076666D01*
X113588152Y-99076666D02*
X113683390Y-99124285D01*
X113683390Y-99124285D02*
X113731009Y-99171904D01*
X113731009Y-99171904D02*
X113778628Y-99267142D01*
X113778628Y-99267142D02*
X113778628Y-99648094D01*
X113350057Y-98695713D02*
X113302438Y-98648094D01*
X113302438Y-98648094D02*
X113254819Y-98552856D01*
X113254819Y-98552856D02*
X113254819Y-98314761D01*
X113254819Y-98314761D02*
X113302438Y-98219523D01*
X113302438Y-98219523D02*
X113350057Y-98171904D01*
X113350057Y-98171904D02*
X113445295Y-98124285D01*
X113445295Y-98124285D02*
X113540533Y-98124285D01*
X113540533Y-98124285D02*
X113683390Y-98171904D01*
X113683390Y-98171904D02*
X114254819Y-98743332D01*
X114254819Y-98743332D02*
X114254819Y-98124285D01*
X145633333Y-112654819D02*
X145300000Y-112178628D01*
X145061905Y-112654819D02*
X145061905Y-111654819D01*
X145061905Y-111654819D02*
X145442857Y-111654819D01*
X145442857Y-111654819D02*
X145538095Y-111702438D01*
X145538095Y-111702438D02*
X145585714Y-111750057D01*
X145585714Y-111750057D02*
X145633333Y-111845295D01*
X145633333Y-111845295D02*
X145633333Y-111988152D01*
X145633333Y-111988152D02*
X145585714Y-112083390D01*
X145585714Y-112083390D02*
X145538095Y-112131009D01*
X145538095Y-112131009D02*
X145442857Y-112178628D01*
X145442857Y-112178628D02*
X145061905Y-112178628D01*
X146585714Y-112654819D02*
X146014286Y-112654819D01*
X146300000Y-112654819D02*
X146300000Y-111654819D01*
X146300000Y-111654819D02*
X146204762Y-111797676D01*
X146204762Y-111797676D02*
X146109524Y-111892914D01*
X146109524Y-111892914D02*
X146014286Y-111940533D01*
X142866666Y-99854819D02*
X142866666Y-100569104D01*
X142866666Y-100569104D02*
X142819047Y-100711961D01*
X142819047Y-100711961D02*
X142723809Y-100807200D01*
X142723809Y-100807200D02*
X142580952Y-100854819D01*
X142580952Y-100854819D02*
X142485714Y-100854819D01*
X143866666Y-100854819D02*
X143295238Y-100854819D01*
X143580952Y-100854819D02*
X143580952Y-99854819D01*
X143580952Y-99854819D02*
X143485714Y-99997676D01*
X143485714Y-99997676D02*
X143390476Y-100092914D01*
X143390476Y-100092914D02*
X143295238Y-100140533D01*
X120366666Y-115218509D02*
X120033333Y-115218509D01*
X120033333Y-115742319D02*
X120033333Y-114742319D01*
X120033333Y-114742319D02*
X120509523Y-114742319D01*
X121223809Y-115218509D02*
X121366666Y-115266128D01*
X121366666Y-115266128D02*
X121414285Y-115313747D01*
X121414285Y-115313747D02*
X121461904Y-115408985D01*
X121461904Y-115408985D02*
X121461904Y-115551842D01*
X121461904Y-115551842D02*
X121414285Y-115647080D01*
X121414285Y-115647080D02*
X121366666Y-115694700D01*
X121366666Y-115694700D02*
X121271428Y-115742319D01*
X121271428Y-115742319D02*
X120890476Y-115742319D01*
X120890476Y-115742319D02*
X120890476Y-114742319D01*
X120890476Y-114742319D02*
X121223809Y-114742319D01*
X121223809Y-114742319D02*
X121319047Y-114789938D01*
X121319047Y-114789938D02*
X121366666Y-114837557D01*
X121366666Y-114837557D02*
X121414285Y-114932795D01*
X121414285Y-114932795D02*
X121414285Y-115028033D01*
X121414285Y-115028033D02*
X121366666Y-115123271D01*
X121366666Y-115123271D02*
X121319047Y-115170890D01*
X121319047Y-115170890D02*
X121223809Y-115218509D01*
X121223809Y-115218509D02*
X120890476Y-115218509D01*
X122414285Y-115742319D02*
X121842857Y-115742319D01*
X122128571Y-115742319D02*
X122128571Y-114742319D01*
X122128571Y-114742319D02*
X122033333Y-114885176D01*
X122033333Y-114885176D02*
X121938095Y-114980414D01*
X121938095Y-114980414D02*
X121842857Y-115028033D01*
X142261905Y-119954819D02*
X142261905Y-118954819D01*
X142261905Y-118954819D02*
X142500000Y-118954819D01*
X142500000Y-118954819D02*
X142642857Y-119002438D01*
X142642857Y-119002438D02*
X142738095Y-119097676D01*
X142738095Y-119097676D02*
X142785714Y-119192914D01*
X142785714Y-119192914D02*
X142833333Y-119383390D01*
X142833333Y-119383390D02*
X142833333Y-119526247D01*
X142833333Y-119526247D02*
X142785714Y-119716723D01*
X142785714Y-119716723D02*
X142738095Y-119811961D01*
X142738095Y-119811961D02*
X142642857Y-119907200D01*
X142642857Y-119907200D02*
X142500000Y-119954819D01*
X142500000Y-119954819D02*
X142261905Y-119954819D01*
X143785714Y-119954819D02*
X143214286Y-119954819D01*
X143500000Y-119954819D02*
X143500000Y-118954819D01*
X143500000Y-118954819D02*
X143404762Y-119097676D01*
X143404762Y-119097676D02*
X143309524Y-119192914D01*
X143309524Y-119192914D02*
X143214286Y-119240533D01*
X115457142Y-109609580D02*
X115409523Y-109657200D01*
X115409523Y-109657200D02*
X115266666Y-109704819D01*
X115266666Y-109704819D02*
X115171428Y-109704819D01*
X115171428Y-109704819D02*
X115028571Y-109657200D01*
X115028571Y-109657200D02*
X114933333Y-109561961D01*
X114933333Y-109561961D02*
X114885714Y-109466723D01*
X114885714Y-109466723D02*
X114838095Y-109276247D01*
X114838095Y-109276247D02*
X114838095Y-109133390D01*
X114838095Y-109133390D02*
X114885714Y-108942914D01*
X114885714Y-108942914D02*
X114933333Y-108847676D01*
X114933333Y-108847676D02*
X115028571Y-108752438D01*
X115028571Y-108752438D02*
X115171428Y-108704819D01*
X115171428Y-108704819D02*
X115266666Y-108704819D01*
X115266666Y-108704819D02*
X115409523Y-108752438D01*
X115409523Y-108752438D02*
X115457142Y-108800057D01*
X116409523Y-109704819D02*
X115838095Y-109704819D01*
X116123809Y-109704819D02*
X116123809Y-108704819D01*
X116123809Y-108704819D02*
X116028571Y-108847676D01*
X116028571Y-108847676D02*
X115933333Y-108942914D01*
X115933333Y-108942914D02*
X115838095Y-108990533D01*
X116742857Y-108704819D02*
X117361904Y-108704819D01*
X117361904Y-108704819D02*
X117028571Y-109085771D01*
X117028571Y-109085771D02*
X117171428Y-109085771D01*
X117171428Y-109085771D02*
X117266666Y-109133390D01*
X117266666Y-109133390D02*
X117314285Y-109181009D01*
X117314285Y-109181009D02*
X117361904Y-109276247D01*
X117361904Y-109276247D02*
X117361904Y-109514342D01*
X117361904Y-109514342D02*
X117314285Y-109609580D01*
X117314285Y-109609580D02*
X117266666Y-109657200D01*
X117266666Y-109657200D02*
X117171428Y-109704819D01*
X117171428Y-109704819D02*
X116885714Y-109704819D01*
X116885714Y-109704819D02*
X116790476Y-109657200D01*
X116790476Y-109657200D02*
X116742857Y-109609580D01*
X116557142Y-102959580D02*
X116509523Y-103007200D01*
X116509523Y-103007200D02*
X116366666Y-103054819D01*
X116366666Y-103054819D02*
X116271428Y-103054819D01*
X116271428Y-103054819D02*
X116128571Y-103007200D01*
X116128571Y-103007200D02*
X116033333Y-102911961D01*
X116033333Y-102911961D02*
X115985714Y-102816723D01*
X115985714Y-102816723D02*
X115938095Y-102626247D01*
X115938095Y-102626247D02*
X115938095Y-102483390D01*
X115938095Y-102483390D02*
X115985714Y-102292914D01*
X115985714Y-102292914D02*
X116033333Y-102197676D01*
X116033333Y-102197676D02*
X116128571Y-102102438D01*
X116128571Y-102102438D02*
X116271428Y-102054819D01*
X116271428Y-102054819D02*
X116366666Y-102054819D01*
X116366666Y-102054819D02*
X116509523Y-102102438D01*
X116509523Y-102102438D02*
X116557142Y-102150057D01*
X117509523Y-103054819D02*
X116938095Y-103054819D01*
X117223809Y-103054819D02*
X117223809Y-102054819D01*
X117223809Y-102054819D02*
X117128571Y-102197676D01*
X117128571Y-102197676D02*
X117033333Y-102292914D01*
X117033333Y-102292914D02*
X116938095Y-102340533D01*
X117890476Y-102150057D02*
X117938095Y-102102438D01*
X117938095Y-102102438D02*
X118033333Y-102054819D01*
X118033333Y-102054819D02*
X118271428Y-102054819D01*
X118271428Y-102054819D02*
X118366666Y-102102438D01*
X118366666Y-102102438D02*
X118414285Y-102150057D01*
X118414285Y-102150057D02*
X118461904Y-102245295D01*
X118461904Y-102245295D02*
X118461904Y-102340533D01*
X118461904Y-102340533D02*
X118414285Y-102483390D01*
X118414285Y-102483390D02*
X117842857Y-103054819D01*
X117842857Y-103054819D02*
X118461904Y-103054819D01*
X124337142Y-115359580D02*
X124289523Y-115407200D01*
X124289523Y-115407200D02*
X124146666Y-115454819D01*
X124146666Y-115454819D02*
X124051428Y-115454819D01*
X124051428Y-115454819D02*
X123908571Y-115407200D01*
X123908571Y-115407200D02*
X123813333Y-115311961D01*
X123813333Y-115311961D02*
X123765714Y-115216723D01*
X123765714Y-115216723D02*
X123718095Y-115026247D01*
X123718095Y-115026247D02*
X123718095Y-114883390D01*
X123718095Y-114883390D02*
X123765714Y-114692914D01*
X123765714Y-114692914D02*
X123813333Y-114597676D01*
X123813333Y-114597676D02*
X123908571Y-114502438D01*
X123908571Y-114502438D02*
X124051428Y-114454819D01*
X124051428Y-114454819D02*
X124146666Y-114454819D01*
X124146666Y-114454819D02*
X124289523Y-114502438D01*
X124289523Y-114502438D02*
X124337142Y-114550057D01*
X125289523Y-115454819D02*
X124718095Y-115454819D01*
X125003809Y-115454819D02*
X125003809Y-114454819D01*
X125003809Y-114454819D02*
X124908571Y-114597676D01*
X124908571Y-114597676D02*
X124813333Y-114692914D01*
X124813333Y-114692914D02*
X124718095Y-114740533D01*
X126241904Y-115454819D02*
X125670476Y-115454819D01*
X125956190Y-115454819D02*
X125956190Y-114454819D01*
X125956190Y-114454819D02*
X125860952Y-114597676D01*
X125860952Y-114597676D02*
X125765714Y-114692914D01*
X125765714Y-114692914D02*
X125670476Y-114740533D01*
X116057142Y-114359580D02*
X116009523Y-114407200D01*
X116009523Y-114407200D02*
X115866666Y-114454819D01*
X115866666Y-114454819D02*
X115771428Y-114454819D01*
X115771428Y-114454819D02*
X115628571Y-114407200D01*
X115628571Y-114407200D02*
X115533333Y-114311961D01*
X115533333Y-114311961D02*
X115485714Y-114216723D01*
X115485714Y-114216723D02*
X115438095Y-114026247D01*
X115438095Y-114026247D02*
X115438095Y-113883390D01*
X115438095Y-113883390D02*
X115485714Y-113692914D01*
X115485714Y-113692914D02*
X115533333Y-113597676D01*
X115533333Y-113597676D02*
X115628571Y-113502438D01*
X115628571Y-113502438D02*
X115771428Y-113454819D01*
X115771428Y-113454819D02*
X115866666Y-113454819D01*
X115866666Y-113454819D02*
X116009523Y-113502438D01*
X116009523Y-113502438D02*
X116057142Y-113550057D01*
X117009523Y-114454819D02*
X116438095Y-114454819D01*
X116723809Y-114454819D02*
X116723809Y-113454819D01*
X116723809Y-113454819D02*
X116628571Y-113597676D01*
X116628571Y-113597676D02*
X116533333Y-113692914D01*
X116533333Y-113692914D02*
X116438095Y-113740533D01*
X117628571Y-113454819D02*
X117723809Y-113454819D01*
X117723809Y-113454819D02*
X117819047Y-113502438D01*
X117819047Y-113502438D02*
X117866666Y-113550057D01*
X117866666Y-113550057D02*
X117914285Y-113645295D01*
X117914285Y-113645295D02*
X117961904Y-113835771D01*
X117961904Y-113835771D02*
X117961904Y-114073866D01*
X117961904Y-114073866D02*
X117914285Y-114264342D01*
X117914285Y-114264342D02*
X117866666Y-114359580D01*
X117866666Y-114359580D02*
X117819047Y-114407200D01*
X117819047Y-114407200D02*
X117723809Y-114454819D01*
X117723809Y-114454819D02*
X117628571Y-114454819D01*
X117628571Y-114454819D02*
X117533333Y-114407200D01*
X117533333Y-114407200D02*
X117485714Y-114359580D01*
X117485714Y-114359580D02*
X117438095Y-114264342D01*
X117438095Y-114264342D02*
X117390476Y-114073866D01*
X117390476Y-114073866D02*
X117390476Y-113835771D01*
X117390476Y-113835771D02*
X117438095Y-113645295D01*
X117438095Y-113645295D02*
X117485714Y-113550057D01*
X117485714Y-113550057D02*
X117533333Y-113502438D01*
X117533333Y-113502438D02*
X117628571Y-113454819D01*
X117033333Y-112359580D02*
X116985714Y-112407200D01*
X116985714Y-112407200D02*
X116842857Y-112454819D01*
X116842857Y-112454819D02*
X116747619Y-112454819D01*
X116747619Y-112454819D02*
X116604762Y-112407200D01*
X116604762Y-112407200D02*
X116509524Y-112311961D01*
X116509524Y-112311961D02*
X116461905Y-112216723D01*
X116461905Y-112216723D02*
X116414286Y-112026247D01*
X116414286Y-112026247D02*
X116414286Y-111883390D01*
X116414286Y-111883390D02*
X116461905Y-111692914D01*
X116461905Y-111692914D02*
X116509524Y-111597676D01*
X116509524Y-111597676D02*
X116604762Y-111502438D01*
X116604762Y-111502438D02*
X116747619Y-111454819D01*
X116747619Y-111454819D02*
X116842857Y-111454819D01*
X116842857Y-111454819D02*
X116985714Y-111502438D01*
X116985714Y-111502438D02*
X117033333Y-111550057D01*
X117509524Y-112454819D02*
X117700000Y-112454819D01*
X117700000Y-112454819D02*
X117795238Y-112407200D01*
X117795238Y-112407200D02*
X117842857Y-112359580D01*
X117842857Y-112359580D02*
X117938095Y-112216723D01*
X117938095Y-112216723D02*
X117985714Y-112026247D01*
X117985714Y-112026247D02*
X117985714Y-111645295D01*
X117985714Y-111645295D02*
X117938095Y-111550057D01*
X117938095Y-111550057D02*
X117890476Y-111502438D01*
X117890476Y-111502438D02*
X117795238Y-111454819D01*
X117795238Y-111454819D02*
X117604762Y-111454819D01*
X117604762Y-111454819D02*
X117509524Y-111502438D01*
X117509524Y-111502438D02*
X117461905Y-111550057D01*
X117461905Y-111550057D02*
X117414286Y-111645295D01*
X117414286Y-111645295D02*
X117414286Y-111883390D01*
X117414286Y-111883390D02*
X117461905Y-111978628D01*
X117461905Y-111978628D02*
X117509524Y-112026247D01*
X117509524Y-112026247D02*
X117604762Y-112073866D01*
X117604762Y-112073866D02*
X117795238Y-112073866D01*
X117795238Y-112073866D02*
X117890476Y-112026247D01*
X117890476Y-112026247D02*
X117938095Y-111978628D01*
X117938095Y-111978628D02*
X117985714Y-111883390D01*
X119333333Y-110679580D02*
X119285714Y-110727200D01*
X119285714Y-110727200D02*
X119142857Y-110774819D01*
X119142857Y-110774819D02*
X119047619Y-110774819D01*
X119047619Y-110774819D02*
X118904762Y-110727200D01*
X118904762Y-110727200D02*
X118809524Y-110631961D01*
X118809524Y-110631961D02*
X118761905Y-110536723D01*
X118761905Y-110536723D02*
X118714286Y-110346247D01*
X118714286Y-110346247D02*
X118714286Y-110203390D01*
X118714286Y-110203390D02*
X118761905Y-110012914D01*
X118761905Y-110012914D02*
X118809524Y-109917676D01*
X118809524Y-109917676D02*
X118904762Y-109822438D01*
X118904762Y-109822438D02*
X119047619Y-109774819D01*
X119047619Y-109774819D02*
X119142857Y-109774819D01*
X119142857Y-109774819D02*
X119285714Y-109822438D01*
X119285714Y-109822438D02*
X119333333Y-109870057D01*
X119904762Y-110203390D02*
X119809524Y-110155771D01*
X119809524Y-110155771D02*
X119761905Y-110108152D01*
X119761905Y-110108152D02*
X119714286Y-110012914D01*
X119714286Y-110012914D02*
X119714286Y-109965295D01*
X119714286Y-109965295D02*
X119761905Y-109870057D01*
X119761905Y-109870057D02*
X119809524Y-109822438D01*
X119809524Y-109822438D02*
X119904762Y-109774819D01*
X119904762Y-109774819D02*
X120095238Y-109774819D01*
X120095238Y-109774819D02*
X120190476Y-109822438D01*
X120190476Y-109822438D02*
X120238095Y-109870057D01*
X120238095Y-109870057D02*
X120285714Y-109965295D01*
X120285714Y-109965295D02*
X120285714Y-110012914D01*
X120285714Y-110012914D02*
X120238095Y-110108152D01*
X120238095Y-110108152D02*
X120190476Y-110155771D01*
X120190476Y-110155771D02*
X120095238Y-110203390D01*
X120095238Y-110203390D02*
X119904762Y-110203390D01*
X119904762Y-110203390D02*
X119809524Y-110251009D01*
X119809524Y-110251009D02*
X119761905Y-110298628D01*
X119761905Y-110298628D02*
X119714286Y-110393866D01*
X119714286Y-110393866D02*
X119714286Y-110584342D01*
X119714286Y-110584342D02*
X119761905Y-110679580D01*
X119761905Y-110679580D02*
X119809524Y-110727200D01*
X119809524Y-110727200D02*
X119904762Y-110774819D01*
X119904762Y-110774819D02*
X120095238Y-110774819D01*
X120095238Y-110774819D02*
X120190476Y-110727200D01*
X120190476Y-110727200D02*
X120238095Y-110679580D01*
X120238095Y-110679580D02*
X120285714Y-110584342D01*
X120285714Y-110584342D02*
X120285714Y-110393866D01*
X120285714Y-110393866D02*
X120238095Y-110298628D01*
X120238095Y-110298628D02*
X120190476Y-110251009D01*
X120190476Y-110251009D02*
X120095238Y-110203390D01*
X121233333Y-101359580D02*
X121185714Y-101407200D01*
X121185714Y-101407200D02*
X121042857Y-101454819D01*
X121042857Y-101454819D02*
X120947619Y-101454819D01*
X120947619Y-101454819D02*
X120804762Y-101407200D01*
X120804762Y-101407200D02*
X120709524Y-101311961D01*
X120709524Y-101311961D02*
X120661905Y-101216723D01*
X120661905Y-101216723D02*
X120614286Y-101026247D01*
X120614286Y-101026247D02*
X120614286Y-100883390D01*
X120614286Y-100883390D02*
X120661905Y-100692914D01*
X120661905Y-100692914D02*
X120709524Y-100597676D01*
X120709524Y-100597676D02*
X120804762Y-100502438D01*
X120804762Y-100502438D02*
X120947619Y-100454819D01*
X120947619Y-100454819D02*
X121042857Y-100454819D01*
X121042857Y-100454819D02*
X121185714Y-100502438D01*
X121185714Y-100502438D02*
X121233333Y-100550057D01*
X121566667Y-100454819D02*
X122233333Y-100454819D01*
X122233333Y-100454819D02*
X121804762Y-101454819D01*
X130433333Y-114759580D02*
X130385714Y-114807200D01*
X130385714Y-114807200D02*
X130242857Y-114854819D01*
X130242857Y-114854819D02*
X130147619Y-114854819D01*
X130147619Y-114854819D02*
X130004762Y-114807200D01*
X130004762Y-114807200D02*
X129909524Y-114711961D01*
X129909524Y-114711961D02*
X129861905Y-114616723D01*
X129861905Y-114616723D02*
X129814286Y-114426247D01*
X129814286Y-114426247D02*
X129814286Y-114283390D01*
X129814286Y-114283390D02*
X129861905Y-114092914D01*
X129861905Y-114092914D02*
X129909524Y-113997676D01*
X129909524Y-113997676D02*
X130004762Y-113902438D01*
X130004762Y-113902438D02*
X130147619Y-113854819D01*
X130147619Y-113854819D02*
X130242857Y-113854819D01*
X130242857Y-113854819D02*
X130385714Y-113902438D01*
X130385714Y-113902438D02*
X130433333Y-113950057D01*
X131290476Y-113854819D02*
X131100000Y-113854819D01*
X131100000Y-113854819D02*
X131004762Y-113902438D01*
X131004762Y-113902438D02*
X130957143Y-113950057D01*
X130957143Y-113950057D02*
X130861905Y-114092914D01*
X130861905Y-114092914D02*
X130814286Y-114283390D01*
X130814286Y-114283390D02*
X130814286Y-114664342D01*
X130814286Y-114664342D02*
X130861905Y-114759580D01*
X130861905Y-114759580D02*
X130909524Y-114807200D01*
X130909524Y-114807200D02*
X131004762Y-114854819D01*
X131004762Y-114854819D02*
X131195238Y-114854819D01*
X131195238Y-114854819D02*
X131290476Y-114807200D01*
X131290476Y-114807200D02*
X131338095Y-114759580D01*
X131338095Y-114759580D02*
X131385714Y-114664342D01*
X131385714Y-114664342D02*
X131385714Y-114426247D01*
X131385714Y-114426247D02*
X131338095Y-114331009D01*
X131338095Y-114331009D02*
X131290476Y-114283390D01*
X131290476Y-114283390D02*
X131195238Y-114235771D01*
X131195238Y-114235771D02*
X131004762Y-114235771D01*
X131004762Y-114235771D02*
X130909524Y-114283390D01*
X130909524Y-114283390D02*
X130861905Y-114331009D01*
X130861905Y-114331009D02*
X130814286Y-114426247D01*
X133033333Y-103559580D02*
X132985714Y-103607200D01*
X132985714Y-103607200D02*
X132842857Y-103654819D01*
X132842857Y-103654819D02*
X132747619Y-103654819D01*
X132747619Y-103654819D02*
X132604762Y-103607200D01*
X132604762Y-103607200D02*
X132509524Y-103511961D01*
X132509524Y-103511961D02*
X132461905Y-103416723D01*
X132461905Y-103416723D02*
X132414286Y-103226247D01*
X132414286Y-103226247D02*
X132414286Y-103083390D01*
X132414286Y-103083390D02*
X132461905Y-102892914D01*
X132461905Y-102892914D02*
X132509524Y-102797676D01*
X132509524Y-102797676D02*
X132604762Y-102702438D01*
X132604762Y-102702438D02*
X132747619Y-102654819D01*
X132747619Y-102654819D02*
X132842857Y-102654819D01*
X132842857Y-102654819D02*
X132985714Y-102702438D01*
X132985714Y-102702438D02*
X133033333Y-102750057D01*
X133938095Y-102654819D02*
X133461905Y-102654819D01*
X133461905Y-102654819D02*
X133414286Y-103131009D01*
X133414286Y-103131009D02*
X133461905Y-103083390D01*
X133461905Y-103083390D02*
X133557143Y-103035771D01*
X133557143Y-103035771D02*
X133795238Y-103035771D01*
X133795238Y-103035771D02*
X133890476Y-103083390D01*
X133890476Y-103083390D02*
X133938095Y-103131009D01*
X133938095Y-103131009D02*
X133985714Y-103226247D01*
X133985714Y-103226247D02*
X133985714Y-103464342D01*
X133985714Y-103464342D02*
X133938095Y-103559580D01*
X133938095Y-103559580D02*
X133890476Y-103607200D01*
X133890476Y-103607200D02*
X133795238Y-103654819D01*
X133795238Y-103654819D02*
X133557143Y-103654819D01*
X133557143Y-103654819D02*
X133461905Y-103607200D01*
X133461905Y-103607200D02*
X133414286Y-103559580D01*
X119233333Y-101959580D02*
X119185714Y-102007200D01*
X119185714Y-102007200D02*
X119042857Y-102054819D01*
X119042857Y-102054819D02*
X118947619Y-102054819D01*
X118947619Y-102054819D02*
X118804762Y-102007200D01*
X118804762Y-102007200D02*
X118709524Y-101911961D01*
X118709524Y-101911961D02*
X118661905Y-101816723D01*
X118661905Y-101816723D02*
X118614286Y-101626247D01*
X118614286Y-101626247D02*
X118614286Y-101483390D01*
X118614286Y-101483390D02*
X118661905Y-101292914D01*
X118661905Y-101292914D02*
X118709524Y-101197676D01*
X118709524Y-101197676D02*
X118804762Y-101102438D01*
X118804762Y-101102438D02*
X118947619Y-101054819D01*
X118947619Y-101054819D02*
X119042857Y-101054819D01*
X119042857Y-101054819D02*
X119185714Y-101102438D01*
X119185714Y-101102438D02*
X119233333Y-101150057D01*
X120090476Y-101388152D02*
X120090476Y-102054819D01*
X119852381Y-101007200D02*
X119614286Y-101721485D01*
X119614286Y-101721485D02*
X120233333Y-101721485D01*
X120558333Y-98159580D02*
X120510714Y-98207200D01*
X120510714Y-98207200D02*
X120367857Y-98254819D01*
X120367857Y-98254819D02*
X120272619Y-98254819D01*
X120272619Y-98254819D02*
X120129762Y-98207200D01*
X120129762Y-98207200D02*
X120034524Y-98111961D01*
X120034524Y-98111961D02*
X119986905Y-98016723D01*
X119986905Y-98016723D02*
X119939286Y-97826247D01*
X119939286Y-97826247D02*
X119939286Y-97683390D01*
X119939286Y-97683390D02*
X119986905Y-97492914D01*
X119986905Y-97492914D02*
X120034524Y-97397676D01*
X120034524Y-97397676D02*
X120129762Y-97302438D01*
X120129762Y-97302438D02*
X120272619Y-97254819D01*
X120272619Y-97254819D02*
X120367857Y-97254819D01*
X120367857Y-97254819D02*
X120510714Y-97302438D01*
X120510714Y-97302438D02*
X120558333Y-97350057D01*
X120891667Y-97254819D02*
X121510714Y-97254819D01*
X121510714Y-97254819D02*
X121177381Y-97635771D01*
X121177381Y-97635771D02*
X121320238Y-97635771D01*
X121320238Y-97635771D02*
X121415476Y-97683390D01*
X121415476Y-97683390D02*
X121463095Y-97731009D01*
X121463095Y-97731009D02*
X121510714Y-97826247D01*
X121510714Y-97826247D02*
X121510714Y-98064342D01*
X121510714Y-98064342D02*
X121463095Y-98159580D01*
X121463095Y-98159580D02*
X121415476Y-98207200D01*
X121415476Y-98207200D02*
X121320238Y-98254819D01*
X121320238Y-98254819D02*
X121034524Y-98254819D01*
X121034524Y-98254819D02*
X120939286Y-98207200D01*
X120939286Y-98207200D02*
X120891667Y-98159580D01*
X140033333Y-114709580D02*
X139985714Y-114757200D01*
X139985714Y-114757200D02*
X139842857Y-114804819D01*
X139842857Y-114804819D02*
X139747619Y-114804819D01*
X139747619Y-114804819D02*
X139604762Y-114757200D01*
X139604762Y-114757200D02*
X139509524Y-114661961D01*
X139509524Y-114661961D02*
X139461905Y-114566723D01*
X139461905Y-114566723D02*
X139414286Y-114376247D01*
X139414286Y-114376247D02*
X139414286Y-114233390D01*
X139414286Y-114233390D02*
X139461905Y-114042914D01*
X139461905Y-114042914D02*
X139509524Y-113947676D01*
X139509524Y-113947676D02*
X139604762Y-113852438D01*
X139604762Y-113852438D02*
X139747619Y-113804819D01*
X139747619Y-113804819D02*
X139842857Y-113804819D01*
X139842857Y-113804819D02*
X139985714Y-113852438D01*
X139985714Y-113852438D02*
X140033333Y-113900057D01*
X140414286Y-113900057D02*
X140461905Y-113852438D01*
X140461905Y-113852438D02*
X140557143Y-113804819D01*
X140557143Y-113804819D02*
X140795238Y-113804819D01*
X140795238Y-113804819D02*
X140890476Y-113852438D01*
X140890476Y-113852438D02*
X140938095Y-113900057D01*
X140938095Y-113900057D02*
X140985714Y-113995295D01*
X140985714Y-113995295D02*
X140985714Y-114090533D01*
X140985714Y-114090533D02*
X140938095Y-114233390D01*
X140938095Y-114233390D02*
X140366667Y-114804819D01*
X140366667Y-114804819D02*
X140985714Y-114804819D01*
X132033333Y-111709580D02*
X131985714Y-111757200D01*
X131985714Y-111757200D02*
X131842857Y-111804819D01*
X131842857Y-111804819D02*
X131747619Y-111804819D01*
X131747619Y-111804819D02*
X131604762Y-111757200D01*
X131604762Y-111757200D02*
X131509524Y-111661961D01*
X131509524Y-111661961D02*
X131461905Y-111566723D01*
X131461905Y-111566723D02*
X131414286Y-111376247D01*
X131414286Y-111376247D02*
X131414286Y-111233390D01*
X131414286Y-111233390D02*
X131461905Y-111042914D01*
X131461905Y-111042914D02*
X131509524Y-110947676D01*
X131509524Y-110947676D02*
X131604762Y-110852438D01*
X131604762Y-110852438D02*
X131747619Y-110804819D01*
X131747619Y-110804819D02*
X131842857Y-110804819D01*
X131842857Y-110804819D02*
X131985714Y-110852438D01*
X131985714Y-110852438D02*
X132033333Y-110900057D01*
X132985714Y-111804819D02*
X132414286Y-111804819D01*
X132700000Y-111804819D02*
X132700000Y-110804819D01*
X132700000Y-110804819D02*
X132604762Y-110947676D01*
X132604762Y-110947676D02*
X132509524Y-111042914D01*
X132509524Y-111042914D02*
X132414286Y-111090533D01*
D12*
%TO.C,SW1*%
X108900000Y-99800000D02*
X108110000Y-99800000D01*
X107100000Y-100400000D02*
X107100000Y-106100000D01*
X109950000Y-101650000D02*
X109950000Y-103350000D01*
X109950000Y-104650000D02*
X109950000Y-104850000D01*
X108110000Y-106700000D02*
X108900000Y-106700000D01*
%TO.C,Y1*%
X113100000Y-104100000D02*
X113100000Y-108100000D01*
X116400000Y-104100000D02*
X113100000Y-104100000D01*
%TO.C,U2*%
X138910000Y-115150000D02*
X138910000Y-118910000D01*
X132090000Y-115150000D02*
X132090000Y-118910000D01*
X138910000Y-118910000D02*
X137650000Y-118910000D01*
X132090000Y-118910000D02*
X133350000Y-118910000D01*
X139140000Y-114110000D02*
X138810000Y-113870000D01*
X139140000Y-113630000D01*
X139140000Y-114110000D01*
G36*
X139140000Y-114110000D02*
G01*
X138810000Y-113870000D01*
X139140000Y-113630000D01*
X139140000Y-114110000D01*
G37*
%TO.C,U1*%
X122140000Y-103727500D02*
X122140000Y-104177500D01*
X122140000Y-110947500D02*
X122140000Y-110497500D01*
X122590000Y-103727500D02*
X122140000Y-103727500D01*
X122590000Y-110947500D02*
X122140000Y-110947500D01*
X128910000Y-103727500D02*
X129360000Y-103727500D01*
X128910000Y-110947500D02*
X129360000Y-110947500D01*
X129360000Y-103727500D02*
X129360000Y-104177500D01*
X129360000Y-110947500D02*
X129360000Y-110497500D01*
X121550000Y-104177500D02*
X121210000Y-103707500D01*
X121890000Y-103707500D01*
X121550000Y-104177500D01*
G36*
X121550000Y-104177500D02*
G01*
X121210000Y-103707500D01*
X121890000Y-103707500D01*
X121550000Y-104177500D01*
G37*
%TO.C,R5*%
X126356359Y-117620000D02*
X126663641Y-117620000D01*
X126356359Y-118380000D02*
X126663641Y-118380000D01*
%TO.C,R4*%
X124643641Y-118380000D02*
X124336359Y-118380000D01*
X124643641Y-117620000D02*
X124336359Y-117620000D01*
%TO.C,R3*%
X135120000Y-105553641D02*
X135120000Y-105246359D01*
X135880000Y-105553641D02*
X135880000Y-105246359D01*
%TO.C,R2*%
X111820000Y-100663641D02*
X111820000Y-100356359D01*
X112580000Y-100663641D02*
X112580000Y-100356359D01*
%TO.C,R1*%
X143356359Y-113780000D02*
X143663641Y-113780000D01*
X143356359Y-113020000D02*
X143663641Y-113020000D01*
%TO.C,J4*%
X120070000Y-124330000D02*
X120070000Y-123000000D01*
X121400000Y-124330000D02*
X120070000Y-124330000D01*
X122670000Y-124330000D02*
X130350000Y-124330000D01*
X122670000Y-124330000D02*
X122670000Y-121670000D01*
X130350000Y-124330000D02*
X130350000Y-121670000D01*
X122670000Y-121670000D02*
X130350000Y-121670000D01*
%TO.C,J3*%
X136350000Y-94330000D02*
X128670000Y-94330000D01*
X128670000Y-91670000D02*
X128670000Y-94330000D01*
X136350000Y-91670000D02*
X136350000Y-94330000D01*
X136350000Y-91670000D02*
X128670000Y-91670000D01*
X137620000Y-91670000D02*
X138950000Y-91670000D01*
X138950000Y-91670000D02*
X138950000Y-93000000D01*
%TO.C,J2*%
X122730000Y-94330000D02*
X115050000Y-94330000D01*
X115050000Y-91670000D02*
X115050000Y-94330000D01*
X122730000Y-91670000D02*
X122730000Y-94330000D01*
X122730000Y-91670000D02*
X115050000Y-91670000D01*
X124000000Y-91670000D02*
X125330000Y-91670000D01*
X125330000Y-91670000D02*
X125330000Y-93000000D01*
D11*
%TO.C,J1*%
X146800000Y-101750000D02*
X146650000Y-101750000D01*
X144250000Y-101750000D02*
X142850000Y-101750000D01*
X147250000Y-102050000D02*
X146800000Y-102050000D01*
X146800000Y-102050000D02*
X146800000Y-101750000D01*
X141100000Y-104100000D02*
X141100000Y-103100000D01*
X140675000Y-106975000D02*
X140675000Y-107700000D01*
X141100000Y-107700000D02*
X141100000Y-108700000D01*
X140675000Y-107700000D02*
X141100000Y-107700000D01*
X146800000Y-109750000D02*
X147250000Y-109750000D01*
X146800000Y-110050000D02*
X146800000Y-109750000D01*
X146650000Y-110050000D02*
X146800000Y-110050000D01*
X142850000Y-110050000D02*
X144250000Y-110050000D01*
D12*
%TO.C,FB1*%
X121710000Y-113162779D02*
X121710000Y-112837221D01*
X120690000Y-113162779D02*
X120690000Y-112837221D01*
%TO.C,D1*%
X143735000Y-115515000D02*
X142265000Y-115515000D01*
X142265000Y-115515000D02*
X142265000Y-117800000D01*
X143735000Y-117800000D02*
X143735000Y-115515000D01*
%TO.C,C13*%
X117240000Y-107377836D02*
X117240000Y-107162164D01*
X117960000Y-107377836D02*
X117960000Y-107162164D01*
%TO.C,C12*%
X117240000Y-105357836D02*
X117240000Y-105142164D01*
X117960000Y-105357836D02*
X117960000Y-105142164D01*
%TO.C,C11*%
X123392164Y-113140000D02*
X123607836Y-113140000D01*
X123392164Y-113860000D02*
X123607836Y-113860000D01*
%TO.C,C10*%
X119327836Y-114360000D02*
X119112164Y-114360000D01*
X119327836Y-113640000D02*
X119112164Y-113640000D01*
%TO.C,C9*%
X119327836Y-111640000D02*
X119112164Y-111640000D01*
X119327836Y-112360000D02*
X119112164Y-112360000D01*
%TO.C,C8*%
X119140000Y-108427836D02*
X119140000Y-108212164D01*
X119860000Y-108427836D02*
X119860000Y-108212164D01*
%TO.C,C7*%
X123142164Y-100640000D02*
X123357836Y-100640000D01*
X123142164Y-101360000D02*
X123357836Y-101360000D01*
%TO.C,C6*%
X128827836Y-113860000D02*
X128612164Y-113860000D01*
X128827836Y-113140000D02*
X128612164Y-113140000D01*
%TO.C,C5*%
X132360000Y-104692164D02*
X132360000Y-104907836D01*
X131640000Y-104692164D02*
X131640000Y-104907836D01*
%TO.C,C4*%
X119140000Y-104087836D02*
X119140000Y-103872164D01*
X119860000Y-104087836D02*
X119860000Y-103872164D01*
%TO.C,C3*%
X123084420Y-98290000D02*
X123365580Y-98290000D01*
X123084420Y-99310000D02*
X123365580Y-99310000D01*
%TO.C,C2*%
X139465000Y-117111252D02*
X139465000Y-116588748D01*
X140935000Y-117111252D02*
X140935000Y-116588748D01*
%TO.C,C1*%
X134988748Y-110615000D02*
X135511252Y-110615000D01*
X134988748Y-112085000D02*
X135511252Y-112085000D01*
%TD*%
M02*
